<svg width="0" height="0" class="hidden">
  <symbol fill="currentColor" xmlns="http://www.w3.org/2000/svg" viewBox="0 0 20 20" id="Add">
    <path d="M16.225 4.55763C16.469 4.31393 16.8648 4.31382 17.1087 4.55763C17.3528 4.80171 17.3528 5.19832 17.1087 5.4424L7.94176 14.6084C7.69768 14.8525 7.30204 14.8525 7.05797 14.6084L2.89097 10.4424C2.6469 10.1983 2.6469 9.80171 2.89097 9.55763C3.13505 9.31355 3.53166 9.31355 3.77574 9.55763L7.49937 13.2822L16.225 4.55763Z" fill="currentColor"></path>
  </symbol>
  <symbol fill="currentColor" xmlns="http://www.w3.org/2000/svg" viewBox="0 0 20 20" id="Analytics">
    <path d="M3.54166 17.5V12.5C3.54166 12.1548 3.82148 11.875 4.16666 11.875C4.51183 11.875 4.79166 12.1548 4.79166 12.5V17.5C4.79166 17.8452 4.51183 18.125 4.16666 18.125C3.82148 18.125 3.54166 17.8452 3.54166 17.5Z" fill="currentColor"></path>
    <path d="M9.37499 17.5V2.5C9.37499 2.15482 9.65481 1.875 9.99999 1.875C10.3452 1.875 10.625 2.15482 10.625 2.5V17.5C10.625 17.8452 10.3452 18.125 9.99999 18.125C9.65481 18.125 9.37499 17.8452 9.37499 17.5Z" fill="currentColor"></path>
    <path d="M15.2083 17.5V7.5C15.2083 7.15482 15.4881 6.875 15.8333 6.875C16.1785 6.875 16.4583 7.15482 16.4583 7.5V17.5C16.4583 17.8452 16.1785 18.125 15.8333 18.125C15.4881 18.125 15.2083 17.8452 15.2083 17.5Z" fill="currentColor"></path>
  </symbol>
  <symbol fill="currentColor" xmlns="http://www.w3.org/2000/svg" viewBox="0 0 20 20" id="Cafe">
    <path d="M7.70832 3.33368V1.66669C7.70832 1.32151 7.98814 1.04169 8.33332 1.04169C8.6785 1.04169 8.95832 1.32151 8.95832 1.66669V3.33368C8.95814 3.67871 8.67839 3.95868 8.33332 3.95868C7.98825 3.95868 7.7085 3.67871 7.70832 3.33368Z" fill="currentColor"></path>
    <path d="M11.0417 3.33368V1.66669C11.0417 1.32151 11.3215 1.04169 11.6667 1.04169C12.0119 1.04169 12.2917 1.32151 12.2917 1.66669V3.33368C12.2915 3.67871 12.0117 3.95868 11.6667 3.95868C11.3216 3.95868 11.0419 3.67871 11.0417 3.33368Z" fill="currentColor"></path>
    <path d="M1.875 14.1667V7.49969C1.87509 7.11304 2.02834 6.74186 2.30176 6.46844C2.57517 6.19503 2.94635 6.04177 3.33301 6.04169H15C16.0497 6.04169 17.0565 6.45864 17.7988 7.20087C18.5411 7.94312 18.9579 8.95 18.958 9.99969C18.958 11.0494 18.5411 12.0562 17.7988 12.7985C17.0565 13.5409 16.0498 13.9587 15 13.9587H14.792V14.1667C14.792 15.2165 14.3742 16.2232 13.6318 16.9655C12.8895 17.7077 11.8827 18.1247 10.833 18.1247H5.83301C4.78331 18.1246 3.77643 17.7078 3.03418 16.9655C2.29195 16.2232 1.875 15.2164 1.875 14.1667ZM3.125 14.1667C3.125 14.8849 3.41016 15.5738 3.91797 16.0817C4.4258 16.5896 5.11483 16.8746 5.83301 16.8747H10.833C11.5512 16.8747 12.2402 16.5895 12.748 16.0817C13.256 15.5738 13.542 14.885 13.542 14.1667V7.49969C13.5419 7.44456 13.5195 7.39123 13.4805 7.35223C13.4414 7.31337 13.3881 7.29169 13.333 7.29169H3.33301C3.27787 7.29177 3.22454 7.31324 3.18555 7.35223C3.14655 7.39123 3.12509 7.44456 3.125 7.49969V14.1667ZM14.792 12.7087H15C15.7183 12.7087 16.4071 12.4226 16.915 11.9147C17.4228 11.4068 17.708 10.7179 17.708 9.99969C17.7079 9.28152 17.4229 8.59249 16.915 8.08466C16.4071 7.57685 15.7182 7.29169 15 7.29169H14.7744C14.7843 7.36029 14.792 7.42957 14.792 7.49969V12.7087Z" fill="currentColor"></path>
    <path d="M4.375 3.33368V1.66669C4.375 1.32151 4.65482 1.04169 5 1.04169C5.34518 1.04169 5.625 1.32151 5.625 1.66669V3.33368C5.62482 3.67871 5.34507 3.95868 5 3.95868C4.65493 3.95868 4.37518 3.67871 4.375 3.33368Z" fill="currentColor"></path>
  </symbol>
  <symbol fill="currentColor" xmlns="http://www.w3.org/2000/svg" viewBox="0 0 20 20" id="Charity">
    <path d="M18.5826 2.81254C17.6375 1.88975 16.3319 1.42856 14.665 1.42856C14.2038 1.42856 13.733 1.50854 13.2532 1.66842C12.7732 1.82842 12.3267 2.04428 11.9141 2.31585C11.501 2.58733 11.146 2.84229 10.8481 3.08031C10.5506 3.31842 10.2678 3.57145 10 3.83923C9.73207 3.57145 9.44932 3.31842 9.1518 3.08031C8.85408 2.84229 8.4989 2.58749 8.08587 2.31585C7.67291 2.04416 7.22645 1.82846 6.74657 1.66842C6.26673 1.50858 5.79603 1.42856 5.33476 1.42856C3.66803 1.42856 2.36231 1.88987 1.4174 2.81254C0.472494 3.73513 0 5.01481 0 6.65171C0 7.15024 0.087564 7.66382 0.26234 8.19182C0.437116 8.7201 0.636285 9.17031 0.859456 9.54226C1.08259 9.91417 1.33562 10.2769 1.61837 10.6303C1.90112 10.9837 2.10775 11.2273 2.23781 11.3612C2.36798 11.4952 2.47032 11.592 2.54471 11.6516L9.5089 18.3703C9.64286 18.5043 9.80654 18.5714 9.99996 18.5714C10.1934 18.5714 10.3572 18.5043 10.4911 18.3703L17.4442 11.6737C19.1481 9.97007 20 8.29596 20 6.65155C20 5.01454 19.5275 3.73497 18.5826 2.81254ZM16.4732 10.6247L10 16.8635L3.51577 10.6135C2.12436 9.22241 1.42878 7.90157 1.42878 6.65155C1.42878 6.04896 1.50876 5.5169 1.66864 5.0557C1.82864 4.59443 2.03324 4.22787 2.28249 3.9563C2.53177 3.68466 2.83492 3.46348 3.19206 3.29222C3.54939 3.12112 3.89906 3.00577 4.24126 2.94627C4.58347 2.88685 4.94799 2.8571 5.33495 2.8571C5.7218 2.8571 6.13855 2.95186 6.58497 3.14165C7.03131 3.33135 7.44239 3.56946 7.81809 3.85588C8.19388 4.14249 8.51567 4.41031 8.78364 4.65947C9.05146 4.90887 9.27459 5.13752 9.45319 5.34587C9.58704 5.50963 9.76948 5.59148 10 5.59148C10.2307 5.59148 10.4129 5.50963 10.5469 5.34587C10.7255 5.13752 10.9488 4.90876 11.2166 4.65947C11.4844 4.41031 11.8063 4.14261 12.1819 3.85588C12.5577 3.56946 12.9688 3.33135 13.4153 3.14165C13.8616 2.9519 14.2785 2.8571 14.6654 2.8571C15.0522 2.8571 15.4167 2.88685 15.759 2.94627C16.1013 3.00573 16.451 3.12112 16.8082 3.29222C17.1654 3.46344 17.4685 3.68478 17.7177 3.9563C17.967 4.22787 18.1717 4.59443 18.3317 5.0557C18.4914 5.5169 18.5714 6.04896 18.5714 6.65155C18.5713 7.90157 17.872 9.22609 16.4732 10.6247Z" fill="currentColor"></path>
  </symbol>
  <symbol fill="currentColor" xmlns="http://www.w3.org/2000/svg" viewBox="0 0 20 20" id="Cloud">
    <path d="M12.25 5.75C14.0979 5.75 15.603 7.24196 15.625 9.08327C15.6162 9.1514 15.6096 9.2195 15.6074 9.28981L15.5789 10.116L16.3611 10.3884C17.2664 10.7037 17.875 11.553 17.875 12.5C17.875 13.7414 16.8664 14.75 15.625 14.75H4.375C3.13465 14.75 2.125 13.7414 2.125 12.5C2.125 11.2717 3.11598 10.2698 4.33984 10.25C4.39258 10.2577 4.44753 10.2643 4.50244 10.2676L5.3572 10.3236L5.63845 9.51611C5.95485 8.60866 6.803 8 7.75 8C7.85986 8 7.98073 8.01318 8.14333 8.04177L8.93104 8.18348L9.32324 7.48584C9.92529 6.41579 11.0459 5.75 12.25 5.75ZM12.25 4.625C10.5647 4.625 9.11339 5.56325 8.34217 6.93434C8.1499 6.90028 7.95324 6.875 7.75 6.875C6.27562 6.875 5.03527 7.82643 4.57606 9.14479C4.50905 9.1404 4.44422 9.125 4.375 9.125C2.51172 9.125 1 10.6367 1 12.5C1 14.3633 2.51172 15.875 4.375 15.875H15.625C17.4883 15.875 19 14.3633 19 12.5C19 11.0256 18.0486 9.78418 16.7302 9.32493C16.7324 9.25684 16.75 9.19313 16.75 9.125C16.75 6.63991 14.7351 4.625 12.25 4.625Z" fill="currentColor"></path>
  </symbol>
  <symbol fill="currentColor" xmlns="http://www.w3.org/2000/svg" viewBox="0 0 20 20" id="Data">
    <path d="M6.04168 4.99963V1.66663C6.04168 1.32145 6.3215 1.04163 6.66668 1.04163C7.01186 1.04163 7.29168 1.32145 7.29168 1.66663V4.99963C7.29168 5.34481 7.01186 5.62463 6.66668 5.62463C6.3215 5.62463 6.04168 5.34481 6.04168 4.99963Z" fill="currentColor"></path>
    <path d="M12.7083 4.99963V1.66663C12.7083 1.32145 12.9881 1.04163 13.3333 1.04163C13.6785 1.04163 13.9583 1.32145 13.9583 1.66663V4.99963C13.9583 5.34481 13.6785 5.62463 13.3333 5.62463C12.9881 5.62463 12.7083 5.34481 12.7083 4.99963Z" fill="currentColor"></path>
    <path d="M16.875 5.00034C16.875 4.42504 16.4083 3.95834 15.833 3.95834H4.16699C3.5917 3.95834 3.125 4.42504 3.125 5.00034V16.6664C3.125 17.2416 3.5917 17.7083 4.16699 17.7083H15.833C16.4083 17.7083 16.875 17.2416 16.875 16.6664V5.00034ZM18.125 16.6664C18.125 17.932 17.0987 18.9583 15.833 18.9583H4.16699C2.90134 18.9583 1.875 17.932 1.875 16.6664V5.00034C1.875 3.73468 2.90134 2.70834 4.16699 2.70834H15.833C17.0987 2.70834 18.125 3.73468 18.125 5.00034V16.6664Z" fill="currentColor"></path>
    <path d="M17.5 7.70834C17.8452 7.70834 18.125 7.98817 18.125 8.33334C18.125 8.67852 17.8452 8.95834 17.5 8.95834H2.5C2.15482 8.95834 1.875 8.67852 1.875 8.33334C1.875 7.98817 2.15482 7.70834 2.5 7.70834H17.5Z" fill="currentColor"></path>
  </symbol>
  <symbol fill="currentColor" xmlns="http://www.w3.org/2000/svg" viewBox="0 0 20 20" id="Delete">
    <path d="M7.70832 14.1667V9.16669C7.70832 8.82151 7.98814 8.54169 8.33332 8.54169C8.6785 8.54169 8.95832 8.82151 8.95832 9.16669V14.1667C8.95832 14.5119 8.6785 14.7917 8.33332 14.7917C7.98814 14.7917 7.70832 14.5119 7.70832 14.1667Z" fill="currentColor"></path>
    <path d="M11.0417 14.1667V9.16669C11.0417 8.82151 11.3215 8.54169 11.6667 8.54169C12.0119 8.54169 12.2917 8.82151 12.2917 9.16669V14.1667C12.2917 14.5119 12.0119 14.7917 11.6667 14.7917C11.3215 14.7917 11.0417 14.5119 11.0417 14.1667Z" fill="currentColor"></path>
    <path d="M3.54168 16.667V5.00001C3.54168 4.65483 3.8215 4.37501 4.16668 4.37501C4.51186 4.37501 4.79168 4.65483 4.79168 5.00001V16.667C4.79177 16.9431 4.90119 17.2081 5.09637 17.4033C5.29172 17.5987 5.5574 17.708 5.83367 17.708H14.1667C14.4429 17.708 14.7077 17.5986 14.903 17.4033C15.0983 17.2081 15.2086 16.9431 15.2087 16.667V5.00001C15.2087 4.65483 15.4885 4.37501 15.8337 4.37501C16.1787 4.37518 16.4587 4.65494 16.4587 5.00001V16.667C16.4586 17.2747 16.2165 17.8574 15.7868 18.2871C15.357 18.7168 14.7744 18.958 14.1667 18.958H5.83367C5.22588 18.958 4.64235 18.7169 4.21258 18.2871C3.78299 17.8574 3.54177 17.2746 3.54168 16.667Z" fill="currentColor"></path>
    <path d="M17.5 4.37501C17.8452 4.37501 18.125 4.65483 18.125 5.00001C18.125 5.34519 17.8452 5.62501 17.5 5.62501H2.5C2.15482 5.62501 1.875 5.34519 1.875 5.00001C1.875 4.65483 2.15482 4.37501 2.5 4.37501H17.5Z" fill="currentColor"></path>
    <path d="M12.7087 4.99969V3.33368C12.7087 3.05741 12.5984 2.79173 12.403 2.59637C12.2077 2.40123 11.9428 2.29169 11.6667 2.29169H8.33367C8.0574 2.29169 7.79172 2.40102 7.59637 2.59637C7.40102 2.79173 7.29168 3.05741 7.29168 3.33368V4.99969C7.29168 5.34487 7.01186 5.62469 6.66668 5.62469C6.3215 5.62469 6.04168 5.34487 6.04168 4.99969V3.33368C6.04168 2.72589 6.28281 2.14236 6.71258 1.71259C7.14235 1.28281 7.72588 1.04169 8.33367 1.04169H11.6667C12.2743 1.04169 12.8571 1.28302 13.2868 1.71259C13.7166 2.14236 13.9587 2.72589 13.9587 3.33368V4.99969C13.9587 5.34476 13.6787 5.62452 13.3337 5.62469C12.9885 5.62469 12.7087 5.34487 12.7087 4.99969Z" fill="currentColor"></path>
  </symbol>
  <symbol fill="currentColor" xmlns="http://www.w3.org/2000/svg" viewBox="0 0 20 20" id="Edit">
    <path d="M17.5003 16.875C17.8453 16.8752 18.1253 17.1549 18.1253 17.5C18.1253 17.8451 17.8453 18.1248 17.5003 18.125H10.8333C10.4881 18.125 10.2083 17.8452 10.2083 17.5C10.2083 17.1548 10.4881 16.875 10.8333 16.875H17.5003Z" fill="currentColor"></path>
    <path d="M5.64914 16.6165C5.81212 16.5669 5.96012 16.478 6.08079 16.3577L17.2029 5.23468L17.3181 5.10773C17.5692 4.80113 17.7086 4.41569 17.7087 4.01593C17.7088 3.55872 17.5271 3.11956 17.2038 2.7962C16.8805 2.47284 16.4414 2.29138 15.9841 2.29132C15.527 2.29134 15.0887 2.47301 14.7654 2.7962L3.64329 13.9202C3.52288 14.0403 3.43272 14.1885 3.38254 14.3509L2.39524 17.6028L5.64914 16.6165ZM18.9587 4.01593C18.9586 4.80464 18.6444 5.56083 18.0866 6.11847L6.9636 17.2435C6.73109 17.4752 6.45188 17.6537 6.14524 17.7679L6.01243 17.8128L2.3845 18.9134C2.20452 18.9675 2.01207 18.9718 1.82981 18.9261C1.64744 18.8802 1.48046 18.7855 1.34739 18.6526C1.21444 18.5198 1.12006 18.3534 1.07395 18.1712C1.02787 17.989 1.03185 17.7976 1.08567 17.6175V17.6155L2.18723 13.9886V13.9866C2.29736 13.6275 2.49444 13.3007 2.76047 13.0355L13.8816 1.91241C14.4393 1.35484 15.1955 1.04134 15.9841 1.04132C16.7729 1.04142 17.5299 1.35461 18.0876 1.91241C18.6453 2.47023 18.9588 3.22716 18.9587 4.01593Z" fill="currentColor"></path>
  </symbol>
  <symbol fill="currentColor" xmlns="http://www.w3.org/2000/svg" viewBox="0 0 20 20" id="Education">
    <path d="M9.75455 1.92478C9.9372 1.84681 10.1487 1.85991 10.3219 1.96384L18.6549 6.96384C18.8381 7.07374 18.952 7.26984 18.9577 7.48337C18.9634 7.69673 18.8601 7.89802 18.6833 8.01755L10.3493 13.6426C10.138 13.7851 9.86134 13.7852 9.65006 13.6426L1.31705 8.01755C1.14013 7.89804 1.03599 7.69681 1.04166 7.48337C1.04736 7.26984 1.16221 7.07374 1.34537 6.96384L9.67838 1.96384L9.75455 1.92478ZM2.82877 7.53122L9.99967 12.3711L17.1696 7.53122L9.99967 3.22849L2.82877 7.53122Z" fill="currentColor"></path>
    <path d="M3.95833 13.3906V9.99997C3.95833 9.6548 4.23815 9.37497 4.58333 9.37497C4.92851 9.37497 5.20833 9.6548 5.20833 9.99997V13.3906C5.20844 14.0975 5.48498 14.7764 5.97884 15.2822C7.00885 16.3366 8.33174 16.875 10.0003 16.875C11.6687 16.8749 12.9909 16.3366 14.0208 15.2822C14.5148 14.7764 14.7912 14.0976 14.7913 13.3906V9.99997C14.7913 9.6549 15.0713 9.37515 15.4163 9.37497C15.7615 9.37497 16.0413 9.6548 16.0413 9.99997V13.3906C16.0412 14.4241 15.6375 15.4169 14.9154 16.1562C13.6264 17.4758 11.9696 18.1249 10.0003 18.125C8.03095 18.125 6.37433 17.4758 5.08528 16.1562C4.36304 15.4168 3.95844 14.4242 3.95833 13.3906Z" fill="currentColor"></path>
    <path d="M17.7083 10.833V7.49997C17.7083 7.1548 17.9882 6.87497 18.3333 6.87497C18.6785 6.87497 18.9583 7.1548 18.9583 7.49997V10.833C18.9583 11.1782 18.6785 11.458 18.3333 11.458C17.9882 11.458 17.7083 11.1782 17.7083 10.833Z" fill="currentColor"></path>
  </symbol>
  <symbol fill="currentColor" xmlns="http://www.w3.org/2000/svg" viewBox="0 0 20 20" id="Entertainments">
    <path d="M12.5 3.75C11.1882 3.75 9.90972 4.16273 8.84556 4.92974C7.7814 5.69674 6.98555 6.77913 6.57073 8.02358C6.15591 9.26803 6.14316 10.6114 6.53429 11.8635C6.92542 13.1156 7.70059 14.2129 8.75 15H1.875C1.70924 15 1.55027 15.0658 1.43306 15.1831C1.31585 15.3003 1.25 15.4592 1.25 15.625C1.25 15.7908 1.31585 15.9497 1.43306 16.0669C1.55027 16.1842 1.70924 16.25 1.875 16.25H12.5C14.1576 16.25 15.7473 15.5915 16.9194 14.4194C18.0915 13.2473 18.75 11.6576 18.75 10C18.75 8.3424 18.0915 6.75269 16.9194 5.58058C15.7473 4.40848 14.1576 3.75 12.5 3.75ZM12.5 15C11.5111 15 10.5444 14.7068 9.72215 14.1573C8.8999 13.6079 8.25904 12.827 7.8806 11.9134C7.50216 10.9998 7.40315 9.99445 7.59607 9.02455C7.789 8.05464 8.2652 7.16373 8.96447 6.46447C9.66373 5.7652 10.5546 5.289 11.5245 5.09607C12.4945 4.90315 13.4998 5.00216 14.4134 5.3806C15.327 5.75904 16.1079 6.3999 16.6573 7.22215C17.2068 8.04439 17.5 9.01109 17.5 10C17.5 11.3261 16.9732 12.5979 16.0355 13.5355C15.0979 14.4732 13.8261 15 12.5 15Z" fill="currentColor"></path>
    <path d="M12.5 8.75C13.1904 8.75 13.75 8.19036 13.75 7.5C13.75 6.80964 13.1904 6.25 12.5 6.25C11.8096 6.25 11.25 6.80964 11.25 7.5C11.25 8.19036 11.8096 8.75 12.5 8.75Z" fill="currentColor"></path>
    <path d="M12.5 13.75C13.1904 13.75 13.75 13.1904 13.75 12.5C13.75 11.8096 13.1904 11.25 12.5 11.25C11.8096 11.25 11.25 11.8096 11.25 12.5C11.25 13.1904 11.8096 13.75 12.5 13.75Z" fill="currentColor"></path>
    <path d="M15 11.25C15.6904 11.25 16.25 10.6904 16.25 10C16.25 9.30964 15.6904 8.75 15 8.75C14.3096 8.75 13.75 9.30964 13.75 10C13.75 10.6904 14.3096 11.25 15 11.25Z" fill="currentColor"></path>
    <path d="M10 11.25C10.6904 11.25 11.25 10.6904 11.25 10C11.25 9.30964 10.6904 8.75 10 8.75C9.30964 8.75 8.75 9.30964 8.75 10C8.75 10.6904 9.30964 11.25 10 11.25Z" fill="currentColor"></path>
  </symbol>
  <symbol fill="currentColor" xmlns="http://www.w3.org/2000/svg" viewBox="0 0 20 20" id="ExclusiveContent">
    <g clip-path="url(#clip0_126_1265)">
      <path d="M9.99999 0.625C10.2554 0.625 10.4851 0.780481 10.5801 1.01758L12.9228 6.875H18.75C19.0104 6.875 19.2434 7.03653 19.335 7.28027C19.4265 7.524 19.3571 7.79925 19.1611 7.9707L14.4551 12.0879L16.2275 18.5859C16.2982 18.8454 16.1954 19.1213 15.9717 19.2705C15.7479 19.4196 15.4535 19.4083 15.2412 19.2432L9.99999 15.166L4.75878 19.2432C4.5465 19.4083 4.25212 19.4196 4.02831 19.2705C3.80455 19.1213 3.7018 18.8454 3.77245 18.5859L5.54394 12.0879L0.83886 7.9707C0.642918 7.79925 0.57348 7.524 0.665031 7.28027C0.756614 7.03653 0.989612 6.875 1.24999 6.875H7.07714L9.41991 1.01758L9.46093 0.932617C9.572 0.743863 9.77637 0.625 9.99999 0.625ZM8.08007 7.73242C7.98507 7.96952 7.75544 8.125 7.49999 8.125H2.91308L6.66113 11.4043C6.8411 11.5618 6.91536 11.8083 6.85253 12.0391L5.46972 17.1055L9.6162 13.8818L9.70507 13.8242C9.91982 13.7091 10.1863 13.7283 10.3838 13.8818L14.5293 17.1055L13.1475 12.0391C13.0846 11.8083 13.1589 11.5618 13.3389 11.4043L17.0869 8.125H12.5C12.2445 8.125 12.0149 7.96952 11.9199 7.73242L9.99999 2.93262L8.08007 7.73242Z" fill="currentColor"></path>
    </g>
    <defs>
      <clipPath id="clip0_126_1265">
        <rect width="20" height="20" fill="white"></rect>
      </clipPath>
    </defs>
  </symbol>
  <symbol fill="currentColor" xmlns="http://www.w3.org/2000/svg" viewBox="0 0 20 20" id="Exit">
    <path d="M12.8909 5.39094C13.135 5.14686 13.5316 5.14686 13.7757 5.39094L17.9417 9.55793C18.1858 9.80201 18.1858 10.1976 17.9417 10.4417L13.7757 14.6087C13.5316 14.8528 13.135 14.8528 12.8909 14.6087C12.6471 14.3647 12.6472 13.969 12.8909 13.7249L16.6155 9.99934L12.8909 6.2757C12.6469 6.03163 12.6469 5.63502 12.8909 5.39094Z" fill="currentColor"></path>
    <path d="M17.5 9.375C17.8452 9.375 18.125 9.65482 18.125 10C18.125 10.3452 17.8452 10.625 17.5 10.625H7.5C7.15482 10.625 6.875 10.3452 6.875 10C6.875 9.65482 7.15482 9.375 7.5 9.375H17.5Z" fill="currentColor"></path>
    <path d="M1.875 15.833V4.16699C1.875 3.5592 2.11613 2.97567 2.5459 2.5459C2.97567 2.11613 3.5592 1.875 4.16699 1.875H7.5C7.84518 1.875 8.125 2.15482 8.125 2.5C8.125 2.84518 7.84518 3.125 7.5 3.125H4.16699C3.89072 3.125 3.62504 3.23434 3.42969 3.42969C3.23434 3.62504 3.125 3.89072 3.125 4.16699V15.833C3.125 16.1093 3.23434 16.375 3.42969 16.5703C3.62504 16.7657 3.89073 16.875 4.16699 16.875H7.5C7.84518 16.875 8.125 17.1548 8.125 17.5C8.125 17.8452 7.84518 18.125 7.5 18.125H4.16699C3.5592 18.125 2.97567 17.8839 2.5459 17.4541C2.11613 17.0243 1.875 16.4408 1.875 15.833Z" fill="currentColor"></path>
  </symbol>
  <symbol fill="currentColor" xmlns="http://www.w3.org/2000/svg" viewBox="0 0 20 20" id="File">
    <path d="M16.875 4.16699C16.875 3.5917 16.4083 3.125 15.833 3.125H4.16699C3.5917 3.125 3.125 3.5917 3.125 4.16699V15.833C3.125 16.4083 3.5917 16.875 4.16699 16.875H15.833C16.4083 16.875 16.875 16.4083 16.875 15.833V4.16699ZM18.125 15.833C18.125 17.0987 17.0987 18.125 15.833 18.125H4.16699C2.90134 18.125 1.875 17.0987 1.875 15.833V4.16699C1.875 2.90134 2.90134 1.875 4.16699 1.875H15.833C17.0987 1.875 18.125 2.90134 18.125 4.16699V15.833Z" fill="currentColor"></path>
    <path d="M8.54133 7.50031C8.54133 6.92512 8.07546 6.4585 7.50031 6.45832C6.92502 6.45832 6.45832 6.92502 6.45832 7.50031C6.4585 8.07546 6.92512 8.54133 7.50031 8.54133C8.07535 8.54115 8.54115 8.07535 8.54133 7.50031ZM9.79133 7.50031C9.79115 8.76571 8.76571 9.79115 7.50031 9.79133C6.23477 9.79133 5.2085 8.76582 5.20832 7.50031C5.20832 6.23466 6.23466 5.20832 7.50031 5.20832C8.76582 5.2085 9.79133 6.23477 9.79133 7.50031Z" fill="currentColor"></path>
    <path d="M13.75 8.81535C14.3576 8.81535 14.9404 9.05667 15.3701 9.48624L17.9424 12.0585C18.186 12.3026 18.1863 12.6984 17.9424 12.9423C17.6983 13.1864 17.3017 13.1864 17.0576 12.9423L14.4863 10.37C14.291 10.1749 14.0261 10.0653 13.75 10.0653C13.4739 10.0653 13.209 10.1749 13.0137 10.37L5.44238 17.9423C5.19831 18.1864 4.8017 18.1864 4.55762 17.9423C4.31373 17.6984 4.314 17.3026 4.55762 17.0585L12.1299 9.48624C12.5596 9.05667 13.1424 8.81535 13.75 8.81535Z" fill="currentColor"></path>
  </symbol>
  <symbol fill="currentColor" xmlns="http://www.w3.org/2000/svg" viewBox="0 0 20 20" id="Filter">
    <path d="M11.042 11.666C11.0423 11.0983 11.2529 10.5509 11.6338 10.1299L17.6523 3.47266C17.6793 3.44277 17.6977 3.40596 17.7041 3.36621C17.7104 3.3265 17.7047 3.28579 17.6885 3.24902C17.6722 3.21238 17.6458 3.18116 17.6123 3.15918C17.5954 3.14818 17.5767 3.13949 17.5576 3.13379L17.499 3.125H2.49999C2.45986 3.12506 2.42037 3.13636 2.3867 3.1582C2.35293 3.18017 2.32592 3.2122 2.30956 3.24902C2.29333 3.28575 2.28859 3.32656 2.29491 3.36621C2.30126 3.40589 2.31879 3.4428 2.34569 3.47266L8.3662 10.1299L8.50096 10.293C8.79667 10.6876 8.95769 11.1691 8.95799 11.666V16.667C8.95798 16.7056 8.96899 16.7435 8.98924 16.7764C9.00955 16.8092 9.03869 16.8362 9.07323 16.8535L10.7402 17.6865L10.79 17.7041C10.8073 17.7078 10.825 17.7098 10.8428 17.709C10.8782 17.7074 10.9131 17.6964 10.9433 17.6777C10.9735 17.6591 10.9984 17.6325 11.0156 17.6016C11.0328 17.5706 11.042 17.5354 11.042 17.5V11.666ZM12.292 17.5L12.2803 17.6846C12.2568 17.8686 12.1982 18.0469 12.1074 18.21C11.9865 18.4271 11.8119 18.6095 11.6006 18.7402C11.3892 18.871 11.1477 18.9458 10.8994 18.957C10.6511 18.9683 10.404 18.9158 10.1816 18.8047L8.51463 17.9717C8.27225 17.8505 8.0682 17.6641 7.92577 17.4336C7.78337 17.2031 7.70787 16.937 7.70799 16.666V11.667C7.70788 11.409 7.61246 11.1601 7.43944 10.9688L1.41795 4.31055C1.22899 4.10118 1.10492 3.84102 1.06053 3.5625C1.01622 3.28408 1.05348 2.99886 1.16795 2.74121C1.28247 2.48354 1.46867 2.26407 1.70506 2.11035C1.94151 1.95661 2.21795 1.8751 2.49999 1.875H17.5019L17.6064 1.87891C17.8513 1.89715 18.0883 1.97752 18.2949 2.1123C18.5307 2.26618 18.7169 2.48482 18.831 2.74219C18.9452 2.99976 18.9829 3.28528 18.9385 3.56348C18.894 3.84167 18.7698 4.10138 18.581 4.31055L12.5615 10.9688C12.3885 11.1601 12.2921 11.409 12.292 11.667V17.5Z" fill="currentColor"></path>
  </symbol>
  <symbol fill="currentColor" xmlns="http://www.w3.org/2000/svg" viewBox="0 0 20 20" id="Finance">
    <path d="M16.25 16.25H3.75C3.25272 16.25 2.77581 16.0525 2.42417 15.7008C2.07254 15.3492 1.875 14.8723 1.875 14.375V5.625C1.875 5.12772 2.07254 4.65081 2.42417 4.29917C2.77581 3.94754 3.25272 3.75 3.75 3.75H16.25C16.7473 3.75 17.2242 3.94754 17.5758 4.29917C17.9275 4.65081 18.125 5.12772 18.125 5.625V14.375C18.125 14.8723 17.9275 15.3492 17.5758 15.7008C17.2242 16.0525 16.7473 16.25 16.25 16.25ZM3.75 5C3.58424 5 3.42527 5.06585 3.30806 5.18306C3.19085 5.30027 3.125 5.45924 3.125 5.625V14.375C3.125 14.5408 3.19085 14.6997 3.30806 14.8169C3.42527 14.9342 3.58424 15 3.75 15H16.25C16.4158 15 16.5747 14.9342 16.6919 14.8169C16.8092 14.6997 16.875 14.5408 16.875 14.375V5.625C16.875 5.45924 16.8092 5.30027 16.6919 5.18306C16.5747 5.06585 16.4158 5 16.25 5H3.75Z" fill="currentColor"></path>
    <path d="M8.75 13.75H5C4.83424 13.75 4.67527 13.6842 4.55806 13.5669C4.44085 13.4497 4.375 13.2908 4.375 13.125C4.375 12.9592 4.44085 12.8003 4.55806 12.6831C4.67527 12.5658 4.83424 12.5 5 12.5H8.75C8.91576 12.5 9.07473 12.5658 9.19194 12.6831C9.30915 12.8003 9.375 12.9592 9.375 13.125C9.375 13.2908 9.30915 13.4497 9.19194 13.5669C9.07473 13.6842 8.91576 13.75 8.75 13.75Z" fill="currentColor"></path>
    <path d="M17.5 8.125H2.5C2.33424 8.125 2.17527 8.05915 2.05806 7.94194C1.94085 7.82473 1.875 7.66576 1.875 7.5C1.875 7.33424 1.94085 7.17527 2.05806 7.05806C2.17527 6.94085 2.33424 6.875 2.5 6.875H17.5C17.6658 6.875 17.8247 6.94085 17.9419 7.05806C18.0592 7.17527 18.125 7.33424 18.125 7.5C18.125 7.66576 18.0592 7.82473 17.9419 7.94194C17.8247 8.05915 17.6658 8.125 17.5 8.125Z" fill="currentColor"></path>
  </symbol>
  <symbol fill="currentColor" xmlns="http://www.w3.org/2000/svg" viewBox="0 0 20 20" id="Food">
    <path d="M7.50001 9.15858C7.96026 9.15858 8.33335 8.78549 8.33335 8.32524C8.33335 7.865 7.96026 7.49191 7.50001 7.49191C7.03977 7.49191 6.66668 7.865 6.66668 8.32524C6.66668 8.78549 7.03977 9.15858 7.50001 9.15858ZM11.6667 10.8237C11.6667 11.2839 11.2936 11.657 10.8333 11.657C10.3731 11.657 10 11.2839 10 10.8237C10 10.3634 10.3731 9.99033 10.8333 9.99033C11.2936 9.99033 11.6667 10.3634 11.6667 10.8237ZM7.50001 14.1547C7.96026 14.1547 8.33335 13.7816 8.33335 13.3214C8.33335 12.8612 7.96026 12.4881 7.50001 12.4881C7.03977 12.4881 6.66668 12.8612 6.66668 13.3214C6.66668 13.7816 7.03977 14.1547 7.50001 14.1547ZM4.16609 3.88379C4.16636 2.63677 5.19211 1.54654 6.51681 1.67733C10.9553 2.11557 14.9018 4.22556 17.7182 7.3668C18.6095 8.36099 18.3326 9.83666 17.3193 10.5712C16.0006 11.5272 14.0365 12.9514 12.9171 13.765C12.9148 14.1295 12.9151 14.3662 12.9157 14.6747C12.9159 14.8242 12.9162 14.9918 12.9162 15.198C12.9162 15.9867 12.2804 16.657 11.4578 16.657C11.3703 16.657 11.285 16.6494 11.2023 16.6349C11.0322 17.3237 10.4256 17.9077 9.58285 17.9077C8.9991 17.9077 8.53118 17.6281 8.24196 17.2286C7.88227 17.4878 7.50275 17.7617 7.13749 18.0255C5.89714 18.9211 4.16311 18.035 4.16342 16.5045L4.16609 3.88379ZM6.394 2.92128C5.88694 2.87122 5.41621 3.29041 5.41609 3.88406L5.416 4.31793C9.79401 4.50162 13.675 6.60796 16.2363 9.81241L16.5857 9.55916C17.0673 9.20991 17.1288 8.58191 16.7875 8.20124C14.1722 5.28421 10.5103 3.32771 6.394 2.92128ZM5.41342 16.5047C5.41331 17.0149 5.9917 17.311 6.40575 17.012C7.00854 16.5768 7.65064 16.1136 8.17861 15.7337C8.36893 15.5967 8.61993 15.5779 8.82868 15.6848C9.03735 15.7917 9.1686 16.0066 9.1686 16.2411C9.1686 16.4662 9.34235 16.6577 9.58285 16.6577C9.8261 16.6577 10.0006 16.4632 10.0006 16.2411V15.198C10.0006 14.8528 10.2804 14.573 10.6256 14.573C10.9708 14.573 11.2506 14.8528 11.2506 15.198C11.2506 15.3153 11.3436 15.407 11.4578 15.407C11.5728 15.407 11.6662 15.3137 11.6662 15.198C11.6662 14.9949 11.6659 14.8296 11.6657 14.6803C11.665 14.289 11.6645 14.0068 11.6696 13.4393C11.6714 13.2413 11.7668 13.0559 11.9269 12.9395C12.6788 12.3926 14.0063 11.4293 15.2231 10.5471C12.889 7.6526 9.37676 5.75077 5.41573 5.56914L5.41342 16.5047Z" fill="currentColor"></path>
  </symbol>
  <symbol fill="currentColor" xmlns="http://www.w3.org/2000/svg" viewBox="0 0 20 20" id="Games">
    <g clip-path="url(#clip0_74_1705)">
      <path d="M14.375 6.5625H10.625V4.0625H17.5C17.7486 4.06222 17.9868 3.96336 18.1626 3.7876C18.3384 3.61185 18.4372 3.37355 18.4375 3.125V0.625H17.1875V2.8125H10.3125C10.0639 2.81278 9.82565 2.91164 9.6499 3.0874C9.47414 3.26315 9.37528 3.50145 9.375 3.75V6.5625H5.625C4.29938 6.564 3.02848 7.09126 2.09112 8.02862C1.15376 8.96598 0.626499 10.2369 0.625 11.5625V15.506C0.626065 16.4489 1.00111 17.3529 1.66786 18.0196C2.3346 18.6864 3.2386 19.0614 4.18152 19.0625H4.25184C4.77337 19.0632 5.28865 18.9489 5.76096 18.7277C6.23327 18.5065 6.65099 18.1839 6.98438 17.7828L9.04297 15.3125H10.9425L12.9998 17.9869C13.4526 18.5755 14.0784 19.0076 14.7894 19.2225C15.5003 19.4375 16.2606 19.4244 16.9638 19.1853C17.6669 18.9461 18.2775 18.4928 18.7099 17.889C19.1424 17.2852 19.3749 16.5612 19.375 15.8185V11.5625C19.3735 10.2369 18.8462 8.96598 17.9089 8.02862C16.9715 7.09126 15.7006 6.564 14.375 6.5625ZM18.125 15.8185C18.125 16.3002 17.9742 16.7698 17.6937 17.1614C17.4132 17.553 17.0172 17.847 16.5612 18.0021C16.1051 18.1572 15.612 18.1656 15.1509 18.0262C14.6898 17.8868 14.284 17.6065 13.9903 17.2247L11.5577 14.0625H8.45727L6.02391 16.9826C5.80771 17.2427 5.53684 17.4519 5.23056 17.5953C4.92429 17.7388 4.59015 17.8129 4.25195 17.8125H4.18164C3.5701 17.8118 2.98379 17.5686 2.55136 17.1362C2.11893 16.7038 1.87568 16.1175 1.875 15.506V11.5625C1.87612 10.5683 2.27156 9.6151 2.97458 8.91208C3.6776 8.20906 4.63078 7.81362 5.625 7.8125H14.375C15.3692 7.81362 16.3224 8.20906 17.0254 8.91208C17.7284 9.6151 18.1239 10.5683 18.125 11.5625V15.8185Z" fill="currentColor"></path>
      <path d="M15.3125 9.6875H14.0625V10.9375H15.3125V9.6875Z" fill="currentColor"></path>
      <path d="M15.3125 12.8125H14.0625V14.0625H15.3125V12.8125Z" fill="currentColor"></path>
      <path d="M13.75 11.25H12.5V12.5H13.75V11.25Z" fill="currentColor"></path>
      <path d="M16.875 11.25H15.625V12.5H16.875V11.25Z" fill="currentColor"></path>
      <path d="M5.9375 9.6875H4.6875V11.25H3.125V12.5H4.6875V14.0625H5.9375V12.5H7.5V11.25H5.9375V9.6875Z" fill="currentColor"></path>
    </g>
    <defs>
      <clipPath id="clip0_74_1705">
        <rect width="20" height="20" fill="white"></rect>
      </clipPath>
    </defs>
  </symbol>
  <symbol fill="currentColor" xmlns="http://www.w3.org/2000/svg" viewBox="0 0 20 20" id="Gym">
    <path d="M3.95834 13.5414H6.04135V6.45834H3.95834V13.5414ZM7.29135 13.6664C7.29135 14.2877 6.78765 14.7914 6.16635 14.7914H3.83334C3.21204 14.7914 2.70834 14.2877 2.70834 13.6664V6.33334C2.70834 5.71202 3.21202 5.20834 3.83334 5.20834H6.16635C6.78767 5.20834 7.29135 5.71202 7.29135 6.33334V13.6664Z" fill="currentColor"></path>
    <path d="M13.9583 13.5414H16.0414V6.45834H13.9583V13.5414ZM17.2914 13.6664C17.2914 14.2877 16.7877 14.7914 16.1664 14.7914H13.8333C13.212 14.7914 12.7083 14.2877 12.7083 13.6664V6.33334C12.7083 5.71204 13.212 5.20834 13.8333 5.20834H16.1664C16.7877 5.20834 17.2914 5.71204 17.2914 6.33334V13.6664Z" fill="currentColor"></path>
    <path d="M1.45834 11.875H2.70834V8.12501H1.45834V11.875ZM3.95834 12C3.95834 12.6214 3.45464 13.125 2.83334 13.125H1.33334C0.712044 13.125 0.208344 12.6214 0.208344 12V8.00001C0.208344 7.37869 0.712023 6.87501 1.33334 6.87501H2.83334C3.45466 6.87501 3.95834 7.37869 3.95834 8.00001V12Z" fill="currentColor"></path>
    <path d="M17.2917 11.875H18.5417V8.12501H17.2917V11.875ZM19.7917 12C19.7917 12.6214 19.288 13.125 18.6667 13.125H17.1667C16.5453 13.125 16.0417 12.6214 16.0417 12V8.00001C16.0417 7.37871 16.5453 6.87501 17.1667 6.87501H18.6667C19.288 6.87501 19.7917 7.37871 19.7917 8.00001V12Z" fill="currentColor"></path>
    <path d="M13.3337 9.37501C13.6787 9.37519 13.9587 9.65494 13.9587 10C13.9587 10.3451 13.6787 10.6248 13.3337 10.625H6.66668C6.3215 10.625 6.04168 10.3452 6.04168 10C6.04168 9.65483 6.3215 9.37501 6.66668 9.37501H13.3337Z" fill="currentColor"></path>
  </symbol>
  <symbol fill="currentColor" xmlns="http://www.w3.org/2000/svg" viewBox="0 0 20 20" id="Install">
    <path d="M9.375 12.5V2.5C9.375 2.15482 9.65482 1.875 10 1.875C10.3452 1.875 10.625 2.15482 10.625 2.5V12.5C10.625 12.8452 10.3452 13.125 10 13.125C9.65482 13.125 9.375 12.8452 9.375 12.5Z" fill="currentColor"></path>
    <path d="M1.875 15.833V12.5C1.875 12.1548 2.15482 11.875 2.5 11.875C2.84518 11.875 3.125 12.1548 3.125 12.5V15.833C3.125 16.1093 3.23434 16.375 3.42969 16.5703C3.62504 16.7657 3.89073 16.875 4.16699 16.875H15.833C16.1093 16.875 16.375 16.7657 16.5703 16.5703C16.7657 16.375 16.875 16.1093 16.875 15.833V12.5C16.875 12.1548 17.1548 11.875 17.5 11.875C17.8452 11.875 18.125 12.1548 18.125 12.5V15.833C18.125 16.4408 17.8839 17.0243 17.4541 17.4541C17.0243 17.8839 16.4408 18.125 15.833 18.125H4.16699C3.5592 18.125 2.97567 17.8839 2.5459 17.4541C2.11613 17.0243 1.875 16.4408 1.875 15.833Z" fill="currentColor"></path>
    <path d="M13.7249 7.89098C13.969 7.64728 14.3647 7.64717 14.6087 7.89098C14.8528 8.13505 14.8528 8.53166 14.6087 8.77574L10.4417 12.9418C10.1977 13.1858 9.80203 13.1858 9.55795 12.9418L5.39096 8.77574C5.14688 8.53166 5.14688 8.13505 5.39096 7.89098C5.63503 7.6469 6.03164 7.6469 6.27572 7.89098L9.99936 11.6156L13.7249 7.89098Z" fill="currentColor"></path>
  </symbol>
  <symbol fill="currentColor" xmlns="http://www.w3.org/2000/svg" viewBox="0 0 20 20" id="Main">
    <path d="M7.70801 3.33301C7.70783 3.2181 7.61495 3.125 7.5 3.125H3.33301C3.21821 3.12518 3.12518 3.21821 3.125 3.33301V9.16699C3.12518 9.28179 3.21821 9.37482 3.33301 9.375H7.5C7.61495 9.375 7.70783 9.2819 7.70801 9.16699V3.33301ZM8.95801 9.16699C8.95783 9.97226 8.30531 10.625 7.5 10.625H3.33301C2.52785 10.6248 1.87518 9.97215 1.875 9.16699V3.33301C1.87518 2.52785 2.52785 1.87518 3.33301 1.875H7.5C8.30531 1.875 8.95783 2.52774 8.95801 3.33301V9.16699Z" fill="currentColor"></path>
    <path d="M16.8747 3.33301C16.8745 3.2181 16.7816 3.125 16.6667 3.125H12.4997C12.3849 3.12518 12.2918 3.21821 12.2917 3.33301V5.83301C12.2917 5.94796 12.3848 6.04182 12.4997 6.04199H16.6667C16.7817 6.04199 16.8747 5.94807 16.8747 5.83301V3.33301ZM18.1247 5.83301C18.1247 6.63842 17.4721 7.29199 16.6667 7.29199H12.4997C11.6944 7.29182 11.0417 6.63831 11.0417 5.83301V3.33301C11.0418 2.52785 11.6945 1.87518 12.4997 1.875H16.6667C17.472 1.875 18.1245 2.52774 18.1247 3.33301V5.83301Z" fill="currentColor"></path>
    <path d="M16.8747 10.833C16.8745 10.7181 16.7816 10.625 16.6667 10.625H12.4997C12.3849 10.6252 12.2918 10.7182 12.2917 10.833V16.667C12.2918 16.7818 12.3849 16.8748 12.4997 16.875H16.6667C16.7816 16.875 16.8745 16.7819 16.8747 16.667V10.833ZM18.1247 16.667C18.1245 17.4723 17.472 18.125 16.6667 18.125H12.4997C11.6945 18.1248 11.0418 17.4721 11.0417 16.667V10.833C11.0418 10.0279 11.6945 9.37518 12.4997 9.375H16.6667C17.472 9.375 18.1245 10.0277 18.1247 10.833V16.667Z" fill="currentColor"></path>
    <path d="M7.70801 14.1663C7.70783 14.0514 7.61495 13.9583 7.5 13.9583H3.33301C3.21821 13.9585 3.12518 14.0515 3.125 14.1663V16.6663C3.125 16.7813 3.2181 16.8751 3.33301 16.8753H7.5C7.61506 16.8753 7.70801 16.7814 7.70801 16.6663V14.1663ZM8.95801 16.6663C8.95801 17.4718 8.30542 18.1253 7.5 18.1253H3.33301C2.52774 18.1251 1.875 17.4716 1.875 16.6663V14.1663C1.87518 13.3612 2.52785 12.7085 3.33301 12.7083H7.5C8.30531 12.7083 8.95783 13.3611 8.95801 14.1663V16.6663Z" fill="currentColor"></path>
  </symbol>
  <symbol fill="currentColor" xmlns="http://www.w3.org/2000/svg" viewBox="0 0 20 20" id="Minus">
    <path d="M15.8337 9.375C16.1787 9.37518 16.4587 9.65493 16.4587 10C16.4587 10.3451 16.1787 10.6248 15.8337 10.625H4.16669C3.82151 10.625 3.54169 10.3452 3.54169 10C3.54169 9.65482 3.82151 9.375 4.16669 9.375H15.8337Z" fill="currentColor"></path>
  </symbol>
  <symbol fill="currentColor" xmlns="http://www.w3.org/2000/svg" viewBox="0 0 20 20" id="More">
    <path d="M7.05763 4.55763C7.30171 4.31355 7.69832 4.31355 7.9424 4.55763L12.9424 9.55763C13.1865 9.80171 13.1865 10.1983 12.9424 10.4424L7.9424 15.4424C7.69832 15.6865 7.30171 15.6865 7.05763 15.4424C6.81355 15.1983 6.81355 14.8017 7.05763 14.5576L11.6152 10L7.05763 5.4424C6.81355 5.19832 6.81355 4.80171 7.05763 4.55763Z" fill="currentColor"></path>
  </symbol>
  <symbol fill="currentColor" xmlns="http://www.w3.org/2000/svg" viewBox="0 0 20 20" id="Music">
    <path d="M16.875 13.333V3.2373L8.125 4.69531V15C8.125 15.3452 7.84518 15.625 7.5 15.625C7.15482 15.625 6.875 15.3452 6.875 15V4.16699C6.875 3.86146 7.09609 3.60003 7.39746 3.5498L17.3975 1.88379C17.5786 1.85364 17.7642 1.90472 17.9043 2.02343C18.0443 2.14218 18.125 2.31643 18.125 2.5V13.333C18.125 13.6782 17.8452 13.958 17.5 13.958C17.1548 13.958 16.875 13.6782 16.875 13.333Z" fill="currentColor"></path>
    <path d="M6.875 15C6.875 13.9645 6.03553 13.125 5 13.125C3.96447 13.125 3.125 13.9645 3.125 15C3.125 16.0355 3.96447 16.875 5 16.875C6.03553 16.875 6.875 16.0355 6.875 15ZM8.125 15C8.125 16.7259 6.72589 18.125 5 18.125C3.27411 18.125 1.875 16.7259 1.875 15C1.875 13.2741 3.27411 11.875 5 11.875C6.72589 11.875 8.125 13.2741 8.125 15Z" fill="currentColor"></path>
    <path d="M16.875 13.333C16.875 12.2975 16.0355 11.4583 15 11.4583C13.9645 11.4583 13.125 12.2978 13.125 13.3333C13.125 14.3689 13.9645 15.2083 15 15.2083C16.0355 15.2083 16.875 14.3685 16.875 13.333ZM18.125 13.333C18.125 15.0589 16.7259 16.4583 15 16.4583C13.2741 16.4583 11.875 15.0592 11.875 13.3333C11.875 11.6074 13.2741 10.2083 15 10.2083C16.7259 10.2083 18.125 11.6071 18.125 13.333Z" fill="currentColor"></path>
  </symbol>
  <symbol fill="currentColor" xmlns="http://www.w3.org/2000/svg" viewBox="0 0 20 20" id="Notifications">
    <path d="M10.9024 17.1875C11.075 16.8887 11.457 16.7864 11.7559 16.959C12.0547 17.1316 12.157 17.5136 11.9844 17.8125C11.7833 18.1608 11.4939 18.4503 11.1455 18.6514C10.7972 18.8524 10.4022 18.958 10 18.958C9.59789 18.958 9.20283 18.8524 8.85453 18.6514C8.50619 18.4503 8.2168 18.1608 8.01566 17.8125C7.84307 17.5136 7.94531 17.1316 8.24418 16.959C8.54307 16.7864 8.92507 16.8887 9.09769 17.1875C9.18912 17.3459 9.32118 17.477 9.47953 17.5684C9.63785 17.6598 9.81723 17.708 10 17.708C10.1828 17.708 10.3622 17.6598 10.5205 17.5684C10.6789 17.477 10.8109 17.3459 10.9024 17.1875Z" fill="currentColor"></path>
    <path d="M14.3746 6.66669C14.3746 5.50636 13.9139 4.39341 13.0934 3.57294C12.2729 2.75258 11.1599 2.29169 9.99964 2.29169C8.8396 2.29178 7.72722 2.75274 6.90687 3.57294C6.0864 4.39341 5.62464 5.50636 5.62464 6.66669C5.62464 8.60666 5.32014 9.94394 4.83851 10.9636C4.36131 11.9737 3.72957 12.626 3.18031 13.1931L3.14613 13.2429C3.13755 13.2607 3.1318 13.2798 3.12855 13.2995C3.12203 13.3393 3.12691 13.3807 3.1432 13.4177C3.15949 13.4545 3.18658 13.4855 3.22034 13.5075C3.25411 13.5295 3.29332 13.5416 3.33363 13.5417H16.6666C16.707 13.5417 16.7471 13.5295 16.7809 13.5075C16.8145 13.4855 16.8408 13.4544 16.8571 13.4177C16.8734 13.3807 16.8792 13.3394 16.8727 13.2995C16.8662 13.2598 16.848 13.2228 16.8209 13.1931C16.2706 12.6258 15.6377 11.9739 15.1608 10.9645C14.679 9.94473 14.3746 8.60667 14.3746 6.66669ZM15.6246 6.66669C15.6246 8.47587 15.9089 9.62017 16.2916 10.4304C16.5791 11.0387 16.9336 11.4854 17.3268 11.9118L17.7321 12.3376L17.7457 12.3522C17.9357 12.5611 18.0608 12.8206 18.1061 13.0993C18.1514 13.3783 18.1149 13.6651 18.0006 13.9235C17.8863 14.1818 17.6993 14.4012 17.4625 14.5554C17.2553 14.6903 17.0176 14.77 16.7721 14.7878L16.6666 14.7917H3.33265C3.05007 14.7914 2.7734 14.7088 2.53675 14.5544C2.30018 14.3999 2.11361 14.1801 1.99964 13.9216C1.88568 13.6631 1.84961 13.3771 1.89515 13.0983C1.94079 12.8194 2.06597 12.5591 2.25648 12.3503L2.26917 12.3366C2.82266 11.7652 3.32525 11.2418 3.70863 10.4304C4.09133 9.62021 4.37464 8.4758 4.37464 6.66669C4.37464 5.17493 4.96733 3.74402 6.0221 2.68915C7.07691 1.63434 8.50793 1.04178 9.99964 1.04169C11.4914 1.04169 12.9223 1.63437 13.9772 2.68915C15.0321 3.74404 15.6246 5.17484 15.6246 6.66669Z" fill="currentColor"></path>
  </symbol>
  <symbol fill="currentColor" xmlns="http://www.w3.org/2000/svg" viewBox="0 0 20 20" id="Operations">
    <path d="M2.50842 3.54169C2.85341 3.54191 3.13342 3.82165 3.13342 4.16669C3.13342 4.51173 2.85341 4.79146 2.50842 4.79169H2.49963C2.15446 4.79169 1.87463 4.51186 1.87463 4.16669C1.87463 3.82151 2.15446 3.54169 2.49963 3.54169H2.50842Z" fill="currentColor"></path>
    <path d="M2.50842 9.37493C2.85341 9.37516 3.13342 9.65489 3.13342 9.99993C3.13342 10.345 2.85341 10.6247 2.50842 10.6249H2.49963C2.15446 10.6249 1.87463 10.3451 1.87463 9.99993C1.87463 9.65476 2.15446 9.37493 2.49963 9.37493H2.50842Z" fill="currentColor"></path>
    <path d="M2.50842 15.2083C2.85341 15.2085 3.13342 15.4883 3.13342 15.8333C3.13342 16.1783 2.85341 16.4581 2.50842 16.4583H2.49963C2.15446 16.4583 1.87463 16.1785 1.87463 15.8333C1.87463 15.4881 2.15446 15.2083 2.49963 15.2083H2.50842Z" fill="currentColor"></path>
    <path d="M17.4996 3.54169C17.8448 3.54169 18.1246 3.82151 18.1246 4.16669C18.1246 4.51186 17.8448 4.79169 17.4996 4.79169H6.66657C6.32139 4.79169 6.04157 4.51186 6.04157 4.16669C6.04157 3.82151 6.32139 3.54169 6.66657 3.54169H17.4996Z" fill="currentColor"></path>
    <path d="M17.4996 9.37493C17.8448 9.37493 18.1246 9.65476 18.1246 9.99993C18.1246 10.3451 17.8448 10.6249 17.4996 10.6249H6.66657C6.32139 10.6249 6.04157 10.3451 6.04157 9.99993C6.04157 9.65476 6.32139 9.37493 6.66657 9.37493H17.4996Z" fill="currentColor"></path>
    <path d="M17.4996 15.2083C17.8448 15.2083 18.1246 15.4881 18.1246 15.8333C18.1246 16.1785 17.8448 16.4583 17.4996 16.4583H6.66657C6.32139 16.4583 6.04157 16.1785 6.04157 15.8333C6.04157 15.4881 6.32139 15.2083 6.66657 15.2083H17.4996Z" fill="currentColor"></path>
  </symbol>
  <symbol fill="currentColor" xmlns="http://www.w3.org/2000/svg" viewBox="0 0 20 20" id="Photo">
    <path d="M17.7086 7.50031C17.7086 7.22404 17.5983 6.95835 17.403 6.763C17.2077 6.56785 16.9428 6.45831 16.6667 6.45831H15.0026C14.5894 6.45832 14.1837 6.34669 13.8288 6.13507C13.5182 5.9498 13.2562 5.69363 13.0641 5.38898L12.986 5.25519L12.5807 4.50519C12.4915 4.33991 12.3592 4.20204 12.1979 4.10577C12.0365 4.0095 11.8516 3.95831 11.6637 3.95831H8.33658C8.14892 3.95831 7.9646 4.00877 7.80338 4.1048C7.64211 4.20088 7.50992 4.33912 7.42056 4.50421L7.01334 5.25714C6.81679 5.62028 6.52528 5.9237 6.17056 6.13507C5.81585 6.34641 5.41061 6.45829 4.99771 6.45831H3.33365C3.05738 6.45831 2.79169 6.56765 2.59634 6.763C2.40099 6.95835 2.29166 7.22404 2.29166 7.50031V15.0003C2.29174 15.2764 2.40117 15.5414 2.59634 15.7366C2.79169 15.932 3.05738 16.0413 3.33365 16.0413H16.6667C16.9428 16.0413 17.2076 15.9319 17.403 15.7366C17.5983 15.5414 17.7086 15.2765 17.7086 15.0003V7.50031ZM18.9586 15.0003C18.9586 15.608 18.7165 16.1907 18.2868 16.6204C17.857 17.0501 17.2744 17.2913 16.6667 17.2913H3.33365C2.72586 17.2913 2.14233 17.0502 1.71255 16.6204C1.28296 16.1907 1.04174 15.6079 1.04166 15.0003V7.50031C1.04166 6.89252 1.28278 6.30898 1.71255 5.87921C2.14233 5.44944 2.72586 5.20831 3.33365 5.20831H4.99771C5.18536 5.20829 5.3697 5.15788 5.53091 5.06183C5.69218 4.96575 5.82437 4.8275 5.91373 4.66241L6.32095 3.90948C6.51752 3.54631 6.80896 3.24293 7.16373 3.03156C7.51848 2.8202 7.92363 2.70831 8.33658 2.70831H11.6637C12.0771 2.70831 12.4835 2.81975 12.8385 3.03156C13.1935 3.24332 13.484 3.54774 13.6803 3.91144L14.0856 4.66144C14.1748 4.82665 14.3072 4.96459 14.4684 5.06085C14.6298 5.15713 14.8147 5.20832 15.0026 5.20831H16.6667C17.2743 5.20831 17.857 5.44964 18.2868 5.87921C18.7165 6.30898 18.9586 6.89252 18.9586 7.50031V15.0003Z" fill="currentColor"></path>
    <path d="M11.875 10.8333C11.875 9.79778 11.0355 8.95831 9.99999 8.95831C8.96446 8.95831 8.12499 9.79778 8.12499 10.8333C8.12499 11.8688 8.96446 12.7083 9.99999 12.7083C11.0355 12.7083 11.875 11.8688 11.875 10.8333ZM13.125 10.8333C13.125 12.5592 11.7259 13.9583 9.99999 13.9583C8.2741 13.9583 6.87499 12.5592 6.87499 10.8333C6.87499 9.10742 8.2741 7.70831 9.99999 7.70831C11.7259 7.70831 13.125 9.10742 13.125 10.8333Z" fill="currentColor"></path>
  </symbol>
  <symbol fill="currentColor" xmlns="http://www.w3.org/2000/svg" viewBox="0 0 20 20" id="Plus">
    <path d="M15.8337 9.37498C16.1787 9.37516 16.4587 9.65491 16.4587 9.99998C16.4587 10.3451 16.1787 10.6248 15.8337 10.625H4.16669C3.82151 10.625 3.54169 10.3452 3.54169 9.99998C3.54169 9.65481 3.82151 9.37498 4.16669 9.37498H15.8337Z" fill="currentColor"></path>
    <path d="M9.37501 15.8336V4.16663C9.37501 3.82145 9.65483 3.54163 10 3.54163C10.3452 3.54163 10.625 3.82145 10.625 4.16663V15.8336C10.6248 16.1786 10.3451 16.4586 10 16.4586C9.65494 16.4586 9.37518 16.1786 9.37501 15.8336Z" fill="currentColor"></path>
  </symbol>
  <symbol fill="currentColor" xmlns="http://www.w3.org/2000/svg" viewBox="0 0 20 20" id="Reminder">
    <path d="M12.7084 11.6666C12.7084 11.3214 12.9882 11.0416 13.3334 11.0416C13.6785 11.0416 13.9584 11.3214 13.9584 11.6666V13.153L14.9984 13.8033C15.2908 13.9864 15.3795 14.3721 15.1966 14.6647C15.0137 14.9573 14.628 15.0458 14.3353 14.8629L13.0023 14.0299C12.8196 13.9157 12.7084 13.7151 12.7084 13.4996V11.6666Z" fill="currentColor"></path>
    <path d="M12.7084 4.99963V1.66663C12.7084 1.32145 12.9882 1.04163 13.3334 1.04163C13.6785 1.04163 13.9584 1.32145 13.9584 1.66663V4.99963C13.9584 5.34481 13.6785 5.62463 13.3334 5.62463C12.9882 5.62463 12.7084 5.34481 12.7084 4.99963Z" fill="currentColor"></path>
    <path d="M16.875 6.25034V5.00034C16.875 4.72407 16.7657 4.45838 16.5703 4.26303C16.375 4.06768 16.1093 3.95834 15.833 3.95834H4.16699C3.89072 3.95834 3.62504 4.06768 3.42969 4.26303C3.23434 4.45838 3.125 4.72407 3.125 5.00034V16.6664C3.125 16.9426 3.23434 17.2083 3.42969 17.4037C3.62504 17.599 3.89073 17.7083 4.16699 17.7083H7.08301C7.42819 17.7083 7.70801 17.9882 7.70801 18.3333C7.70801 18.6785 7.42819 18.9583 7.08301 18.9583H4.16699C3.5592 18.9583 2.97567 18.7172 2.5459 18.2874C2.11613 17.8577 1.875 17.2741 1.875 16.6664V5.00034C1.875 4.39255 2.11613 3.80901 2.5459 3.37924C2.97567 2.94947 3.5592 2.70834 4.16699 2.70834H15.833C16.4408 2.70834 17.0243 2.94947 17.4541 3.37924C17.8839 3.80901 18.125 4.39255 18.125 5.00034V6.25034C18.1248 6.59536 17.8451 6.87534 17.5 6.87534C17.1549 6.87534 16.8752 6.59536 16.875 6.25034Z" fill="currentColor"></path>
    <path d="M6.66699 7.70834C7.01202 7.70852 7.29199 7.98827 7.29199 8.33334C7.29199 8.67841 7.01202 8.95817 6.66699 8.95834H2.5C2.15482 8.95834 1.875 8.67852 1.875 8.33334C1.875 7.98817 2.15482 7.70834 2.5 7.70834H6.66699Z" fill="currentColor"></path>
    <path d="M6.04164 4.99963V1.66663C6.04164 1.32145 6.32146 1.04163 6.66664 1.04163C7.01182 1.04163 7.29164 1.32145 7.29164 1.66663V4.99963C7.29164 5.34481 7.01182 5.62463 6.66664 5.62463C6.32146 5.62463 6.04164 5.34481 6.04164 4.99963Z" fill="currentColor"></path>
    <path d="M17.7084 13.3333C17.7084 10.9171 15.7496 8.95834 13.3334 8.95834C10.9171 8.95834 8.95836 10.9171 8.95836 13.3333C8.95836 15.7496 10.9171 17.7083 13.3334 17.7083C15.7496 17.7083 17.7084 15.7496 17.7084 13.3333ZM18.9584 13.3333C18.9584 16.4399 16.44 18.9583 13.3334 18.9583C10.2268 18.9583 7.70836 16.4399 7.70836 13.3333C7.70836 10.2267 10.2268 7.70834 13.3334 7.70834C16.44 7.70834 18.9584 10.2267 18.9584 13.3333Z" fill="currentColor"></path>
  </symbol>
  <symbol fill="currentColor" xmlns="http://www.w3.org/2000/svg" viewBox="0 0 20 20" id="Search">
    <path d="M13.4409 13.441C13.685 13.1969 14.0816 13.1969 14.3257 13.441L17.9419 17.0581C18.186 17.3022 18.186 17.6979 17.9419 17.9419C17.6979 18.186 17.3022 18.186 17.0581 17.9419L13.4409 14.3257C13.1969 14.0816 13.1969 13.685 13.4409 13.441Z" fill="currentColor"></path>
    <path d="M15.208 9.16699C15.208 5.83038 12.5036 3.12518 9.16699 3.125C5.83027 3.125 3.125 5.83027 3.125 9.16699C3.12518 12.5036 5.83038 15.208 9.16699 15.208C12.5035 15.2078 15.2078 12.5035 15.208 9.16699ZM16.458 9.16699C16.4578 13.1938 13.1938 16.4578 9.16699 16.458C5.14002 16.458 1.87518 13.1939 1.875 9.16699C1.875 5.13992 5.13992 1.875 9.16699 1.875C13.1939 1.87518 16.458 5.14002 16.458 9.16699Z" fill="currentColor"></path>
  </symbol>
  <symbol fill="currentColor" xmlns="http://www.w3.org/2000/svg" viewBox="0 0 20 20" id="Settings">
    <path d="M9.99998 1.05664C10.6406 1.05664 11.2584 1.29557 11.7324 1.72656C12.2064 2.15761 12.5028 2.74993 12.5635 3.3877L12.5644 3.3916C12.5832 3.60349 12.6522 3.80894 12.7666 3.98828C12.881 4.16755 13.0375 4.31653 13.2217 4.42285C13.4059 4.52916 13.6136 4.58928 13.8262 4.59863C14.0385 4.60789 14.2506 4.56624 14.4433 4.47656L14.4492 4.47363C15.0312 4.20948 15.6911 4.17109 16.2998 4.36621C16.9087 4.5615 17.4233 4.9766 17.7431 5.53027C18.063 6.08393 18.1652 6.73732 18.0303 7.3623C17.8952 7.98702 17.5323 8.5399 17.0127 8.91211L17.0078 8.91504C16.8339 9.03717 16.6918 9.20016 16.5937 9.38867C16.4957 9.57733 16.4443 9.78742 16.4443 10C16.4444 10.2126 16.4956 10.4227 16.5937 10.6113C16.6673 10.7528 16.7658 10.8794 16.8838 10.9854L17.0078 11.085L17.0127 11.0879C17.5324 11.4602 17.8952 12.0128 18.0303 12.6377C18.1651 13.2626 18.063 13.9161 17.7431 14.4697C17.4232 15.0232 16.9085 15.4386 16.2998 15.6338C15.6912 15.8288 15.0312 15.7905 14.4492 15.5264L14.4433 15.5234C14.2505 15.4337 14.0387 15.3921 13.8262 15.4014C13.6136 15.4107 13.4059 15.4708 13.2217 15.5771C13.0376 15.6835 12.8809 15.8325 12.7666 16.0117C12.6523 16.1911 12.5832 16.3966 12.5644 16.6084L12.5635 16.6123C12.5027 17.2499 12.2063 17.8425 11.7324 18.2734C11.2584 18.7042 10.6405 18.9434 9.99998 18.9434C9.35944 18.9432 8.74144 18.7044 8.26756 18.2734C7.79371 17.8425 7.49726 17.2499 7.4365 16.6123V16.6074C7.41773 16.3955 7.34776 16.1911 7.23338 16.0117C7.11887 15.8323 6.9627 15.6825 6.7783 15.5762C6.59397 15.4699 6.38636 15.4096 6.17381 15.4004C5.96134 15.3913 5.74937 15.4336 5.55662 15.5234L5.55076 15.5264C4.9688 15.7904 4.30875 15.8288 3.70018 15.6338C3.09151 15.4385 2.57667 15.0232 2.25682 14.4697C1.93702 13.9162 1.83393 13.2626 1.96873 12.6377C2.10369 12.013 2.46683 11.4602 2.98631 11.0879L2.99119 11.085C3.16522 10.9628 3.30808 10.7999 3.40623 10.6113C3.50433 10.4227 3.55558 10.2126 3.55564 10C3.55564 9.78729 3.50433 9.57741 3.40623 9.38867C3.30807 9.1999 3.16536 9.03725 2.99119 8.91504L2.98631 8.91113C2.46745 8.53869 2.1054 7.98662 1.97068 7.3623C1.83611 6.73797 1.93859 6.08539 2.25779 5.53223C2.57722 4.97909 3.09118 4.56384 3.6992 4.36816C4.23133 4.19706 4.80273 4.20489 5.32713 4.38574L5.54881 4.47363L5.55564 4.47656C5.74838 4.56628 5.96044 4.60785 6.17283 4.59863C6.38524 4.58932 6.59312 4.52903 6.77732 4.42285C6.96124 4.31667 7.11706 4.16722 7.23142 3.98828C7.34582 3.80896 7.41574 3.60347 7.43455 3.3916C7.43551 3.38083 7.43886 3.36995 7.44041 3.35938C7.50706 2.73265 7.8009 2.15117 8.26756 1.72656C8.74144 1.29559 9.35944 1.05679 9.99998 1.05664ZM9.99998 2.30664C9.67049 2.30679 9.35215 2.42967 9.10838 2.65137C8.86489 2.87308 8.71189 3.17803 8.68064 3.50586C8.67998 3.51189 8.67748 3.51845 8.67674 3.52441C8.6374 3.92824 8.5044 4.3179 8.28611 4.66016C8.06366 5.00868 7.75948 5.29922 7.40135 5.50586C7.04332 5.71225 6.64039 5.82957 6.22752 5.84766C5.8168 5.86554 5.40725 5.78483 5.03416 5.6123L4.9199 5.56738C4.65 5.47424 4.35591 5.47053 4.08201 5.55859C3.76926 5.65931 3.50414 5.87269 3.33982 6.15723C3.17581 6.44174 3.12318 6.77758 3.19236 7.09863C3.26126 7.41789 3.4456 7.70099 3.70994 7.89258L3.83396 7.98438C4.11623 8.20891 4.34869 8.49147 4.5156 8.8125C4.70616 9.17923 4.80564 9.58671 4.80564 10C4.80558 10.4132 4.70614 10.8209 4.5156 11.1875C4.32577 11.5524 4.04996 11.8665 3.71385 12.1035C3.44664 12.2951 3.26079 12.5809 3.19139 12.9023C3.12221 13.2237 3.17439 13.5601 3.33885 13.8447C3.50336 14.1292 3.76813 14.3428 4.08103 14.4434C4.35505 14.5312 4.65003 14.527 4.9199 14.4336L5.03416 14.3877C5.40741 14.2148 5.81747 14.1336 6.2285 14.1514C6.64176 14.1694 7.04497 14.2875 7.4033 14.4941C7.76161 14.7009 8.06461 14.9911 8.28709 15.3398C8.50956 15.6887 8.64525 16.0859 8.68162 16.498C8.7138 16.8244 8.86572 17.1279 9.10838 17.3486C9.35215 17.5703 9.67049 17.6932 9.99998 17.6934C10.3295 17.6934 10.6477 17.5702 10.8916 17.3486C11.1353 17.127 11.2879 16.8221 11.3193 16.4941C11.3562 16.0836 11.4913 15.6874 11.7129 15.3398C11.9352 14.9913 12.2386 14.7009 12.5967 14.4941C12.9548 14.2875 13.3583 14.1705 13.7715 14.1523C14.1823 14.1344 14.5916 14.2151 14.9648 14.3877C15.2642 14.5236 15.6048 14.5436 15.9179 14.4434C16.2311 14.3429 16.4965 14.1293 16.6611 13.8447C16.8256 13.56 16.8778 13.2237 16.8086 12.9023C16.7391 12.5808 16.5525 12.2961 16.2851 12.1045C15.9491 11.8674 15.6741 11.5524 15.4844 11.1875C15.2938 10.8208 15.1944 10.4133 15.1943 10C15.1943 9.58677 15.2939 9.17919 15.4844 8.8125C15.6741 8.4475 15.949 8.13261 16.2851 7.89551L16.3818 7.81934C16.5973 7.6324 16.7477 7.37953 16.8086 7.09863C16.878 6.77706 16.8256 6.44015 16.6611 6.15527C16.4965 5.87043 16.2312 5.65711 15.9179 5.55664C15.6048 5.4563 15.2653 5.47636 14.9658 5.6123L14.9648 5.61133C14.5916 5.78394 14.1823 5.8656 13.7715 5.84766C13.3583 5.82953 12.9548 5.71253 12.5967 5.50586C12.2385 5.29916 11.9353 5.00876 11.7129 4.66016C11.4912 4.31257 11.3563 3.91644 11.3193 3.50586L11.3017 3.38477C11.2484 3.10337 11.1051 2.84555 10.8916 2.65137C10.6477 2.42957 10.3297 2.30664 9.99998 2.30664ZM9.99998 6.875C11.7259 6.875 13.125 8.27411 13.125 10C13.125 11.7259 11.7259 13.125 9.99998 13.125C8.27417 13.1249 6.87498 11.7258 6.87498 10C6.87498 8.27417 8.27417 6.87509 9.99998 6.875ZM9.99998 8.125C8.96452 8.12509 8.12498 8.96452 8.12498 10C8.12498 11.0355 8.96452 11.8749 9.99998 11.875C11.0355 11.875 11.875 11.0355 11.875 10C11.875 8.96447 11.0355 8.125 9.99998 8.125Z" fill="currentColor"></path>
  </symbol>
  <symbol fill="currentColor" xmlns="http://www.w3.org/2000/svg" viewBox="0 0 20 20" id="Shop">
    <path d="M6.04164 8.33334C6.04164 7.98817 6.32146 7.70834 6.66664 7.70834C7.01182 7.70834 7.29164 7.98817 7.29164 8.33334C7.29164 9.05156 7.5768 9.74049 8.08461 10.2484C8.59244 10.7562 9.28147 11.0413 9.99965 11.0414C10.7179 11.0414 11.4068 10.7562 11.9147 10.2484C12.4226 9.74047 12.7086 9.05164 12.7086 8.33334C12.7086 7.98817 12.9885 7.70834 13.3336 7.70834C13.6787 7.70852 13.9586 7.98827 13.9586 8.33334C13.9586 9.38316 13.5408 10.3898 12.7985 11.1322C12.0562 11.8744 11.0494 12.2914 9.99965 12.2914C8.94995 12.2913 7.94308 11.8744 7.20082 11.1322C6.45859 10.3899 6.04164 9.38308 6.04164 8.33334Z" fill="currentColor"></path>
    <path d="M17.414 4.40329C17.7591 4.40329 18.039 4.68311 18.039 5.02829C18.039 5.37347 17.7591 5.65329 17.414 5.65329H2.58583C2.24065 5.65329 1.96083 5.37347 1.96083 5.02829C1.96083 4.68311 2.24065 4.40329 2.58583 4.40329H17.414Z" fill="currentColor"></path>
    <path d="M16.875 5.55627C16.875 5.33108 16.802 5.11149 16.667 4.93127L15 2.70862C14.9031 2.57936 14.7773 2.47429 14.6328 2.40198C14.4883 2.32971 14.3286 2.29168 14.167 2.29163H5.83301C5.67141 2.29168 5.51173 2.32971 5.36719 2.40198C5.22271 2.47429 5.09694 2.57936 5 2.70862L3.33301 4.9303C3.198 5.11052 3.125 5.33108 3.125 5.55627V16.6666C3.125 16.9427 3.23454 17.2076 3.42969 17.403C3.62504 17.5983 3.89073 17.7086 4.16699 17.7086H15.833C16.1093 17.7086 16.375 17.5983 16.5703 17.403C16.7655 17.2076 16.875 16.9427 16.875 16.6666V5.55627ZM18.125 16.6666C18.125 17.2743 17.8837 17.857 17.4541 18.2867C17.0243 18.7165 16.4408 18.9586 15.833 18.9586H4.16699C3.5592 18.9586 2.97567 18.7165 2.5459 18.2867C2.11633 17.857 1.875 17.2743 1.875 16.6666V5.55627C1.875 5.06062 2.03572 4.57787 2.33301 4.18127L4 1.95862L4.08301 1.85413C4.28334 1.61707 4.53016 1.42303 4.80859 1.28381C5.12671 1.12476 5.47735 1.04168 5.83301 1.04163H14.167C14.5227 1.04168 14.8733 1.12476 15.1914 1.28381C15.5096 1.44292 15.7865 1.674 16 1.95862L17.667 4.18127C17.9643 4.57787 18.125 5.06062 18.125 5.55627V16.6666Z" fill="currentColor"></path>
  </symbol>
  <symbol fill="currentColor" xmlns="http://www.w3.org/2000/svg" viewBox="0 0 20 20" id="Software">
    <path d="M17.5 15H2.5C2.00272 15 1.52581 14.8025 1.17417 14.4508C0.822544 14.0992 0.625 13.6223 0.625 13.125V3.125C0.625 2.62772 0.822544 2.15081 1.17417 1.79917C1.52581 1.44754 2.00272 1.25 2.5 1.25H17.5C17.9973 1.25 18.4742 1.44754 18.8258 1.79917C19.1775 2.15081 19.375 2.62772 19.375 3.125V13.125C19.375 13.6223 19.1775 14.0992 18.8258 14.4508C18.4742 14.8025 17.9973 15 17.5 15ZM2.5 2.5C2.33424 2.5 2.17527 2.56585 2.05806 2.68306C1.94085 2.80027 1.875 2.95924 1.875 3.125V13.125C1.875 13.2908 1.94085 13.4497 2.05806 13.5669C2.17527 13.6842 2.33424 13.75 2.5 13.75H17.5C17.6658 13.75 17.8247 13.6842 17.9419 13.5669C18.0592 13.4497 18.125 13.2908 18.125 13.125V3.125C18.125 2.95924 18.0592 2.80027 17.9419 2.68306C17.8247 2.56585 17.6658 2.5 17.5 2.5H2.5Z" fill="currentColor"></path>
    <path d="M13.125 18.75H6.875C6.78379 18.7512 6.69343 18.7324 6.61026 18.6949C6.52709 18.6574 6.45312 18.6022 6.39356 18.5331C6.334 18.464 6.29029 18.3827 6.26549 18.295C6.24069 18.2072 6.2354 18.115 6.25 18.025L6.875 14.275C6.89896 14.1271 6.97525 13.9927 7.08996 13.8964C7.20468 13.8 7.3502 13.7481 7.5 13.75H12.5C12.6498 13.7481 12.7953 13.8 12.91 13.8964C13.0248 13.9927 13.101 14.1271 13.125 14.275L13.75 18.025C13.7646 18.115 13.7593 18.2072 13.7345 18.295C13.7097 18.3827 13.666 18.464 13.6064 18.5331C13.5469 18.6022 13.4729 18.6574 13.3898 18.6949C13.3066 18.7324 13.2162 18.7512 13.125 18.75ZM7.6125 17.5H12.3875L11.9688 15H8.03125L7.6125 17.5Z" fill="currentColor"></path>
    <path d="M15 18.75H5C4.83424 18.75 4.67527 18.6842 4.55806 18.5669C4.44085 18.4497 4.375 18.2908 4.375 18.125C4.375 17.9592 4.44085 17.8003 4.55806 17.6831C4.67527 17.5658 4.83424 17.5 5 17.5H15C15.1658 17.5 15.3247 17.5658 15.4419 17.6831C15.5592 17.8003 15.625 17.9592 15.625 18.125C15.625 18.2908 15.5592 18.4497 15.4419 18.5669C15.3247 18.6842 15.1658 18.75 15 18.75Z" fill="currentColor"></path>
    <path d="M18.75 11.875H1.25C1.08424 11.875 0.925268 11.8092 0.808058 11.6919C0.690848 11.5747 0.625 11.4158 0.625 11.25C0.625 11.0842 0.690848 10.9253 0.808058 10.8081C0.925268 10.6908 1.08424 10.625 1.25 10.625H18.75C18.9158 10.625 19.0747 10.6908 19.1919 10.8081C19.3092 10.9253 19.375 11.0842 19.375 11.25C19.375 11.4158 19.3092 11.5747 19.1919 11.6919C19.0747 11.8092 18.9158 11.875 18.75 11.875Z" fill="currentColor"></path>
  </symbol>
  <symbol fill="currentColor" xmlns="http://www.w3.org/2000/svg" viewBox="0 0 20 20" id="Sort">
    <path d="M17.0579 12.891C17.3019 12.6472 17.6977 12.6473 17.9417 12.891C18.1858 13.135 18.1858 13.5317 17.9417 13.7757L14.6087 17.1087C14.3647 17.3528 13.969 17.3527 13.7249 17.1087L10.391 13.7757C10.1469 13.5317 10.1469 13.135 10.391 12.891C10.635 12.6469 11.0316 12.6469 11.2757 12.891L14.1663 15.7826L17.0579 12.891Z" fill="currentColor"></path>
    <path d="M13.5417 16.6664V3.33335C13.5417 2.98817 13.8215 2.70835 14.1667 2.70835C14.5119 2.70835 14.7917 2.98817 14.7917 3.33335V16.6664C14.7917 17.0115 14.5119 17.2914 14.1667 17.2914C13.8215 17.2914 13.5417 17.0115 13.5417 16.6664Z" fill="currentColor"></path>
    <path d="M5.48927 2.81089C5.7318 2.65081 6.06185 2.67757 6.2754 2.89097L9.60841 6.22495C9.85249 6.46903 9.85249 6.86466 9.60841 7.10874C9.36432 7.35266 8.96865 7.35276 8.72462 7.10874L5.83302 4.21714L2.9424 7.10874C2.69832 7.35282 2.30171 7.35282 2.05763 7.10874C1.81382 6.86476 1.81393 6.469 2.05763 6.22495L5.39162 2.89097L5.48927 2.81089Z" fill="currentColor"></path>
    <path d="M5.20833 16.6664V3.33335C5.20833 2.98817 5.48816 2.70835 5.83333 2.70835C6.17851 2.70835 6.45833 2.98817 6.45833 3.33335V16.6664C6.45833 17.0115 6.17851 17.2914 5.83333 17.2914C5.48816 17.2914 5.20833 17.0115 5.20833 16.6664Z" fill="currentColor"></path>
  </symbol>
  <symbol fill="currentColor" xmlns="http://www.w3.org/2000/svg" viewBox="0 0 20 20" id="Subscription">
    <path d="M13.1214 1.07876C13.2813 1.02113 13.4587 1.03112 13.6126 1.10806L14.9993 1.80044L16.387 1.10806C16.5808 1.01119 16.8112 1.02153 16.9954 1.1354C17.1795 1.24932 17.2913 1.45017 17.2913 1.66665V18.3336C17.2912 18.5501 17.1795 18.7511 16.9954 18.8649C16.8112 18.9788 16.5808 18.9891 16.387 18.8922L14.9993 18.1989L13.6126 18.8922C13.4367 18.9801 13.2299 18.9801 13.054 18.8922L11.6663 18.1989L10.2796 18.8922C10.1036 18.9802 9.89599 18.9802 9.72003 18.8922L8.33331 18.1989L6.94659 18.8922C6.77064 18.9802 6.56298 18.9802 6.38702 18.8922L4.99933 18.1989L3.61261 18.8922C3.419 18.989 3.18936 18.9786 3.00519 18.8649C2.82102 18.7511 2.70843 18.5501 2.70831 18.3336V1.66665C2.70831 1.45004 2.82093 1.24928 3.00519 1.1354C3.18942 1.02161 3.41892 1.01122 3.61261 1.10806L4.99933 1.80044L6.38702 1.10806C6.56298 1.02008 6.77064 1.02008 6.94659 1.10806L8.33331 1.80142L9.72003 1.10806C9.89599 1.02008 10.1036 1.02008 10.2796 1.10806L11.6663 1.80044L13.054 1.10806L13.1214 1.07876ZM11.9466 3.05923C11.7706 3.14721 11.563 3.14721 11.387 3.05923L9.99933 2.3649L8.61261 3.05923C8.4368 3.14704 8.22983 3.14704 8.05402 3.05923L6.66632 2.3649L5.2796 3.05923C5.10365 3.14721 4.89599 3.14721 4.72003 3.05923L3.95831 2.6774V17.3219L4.72003 16.9411L4.78741 16.9118C4.9474 16.8539 5.12557 16.8641 5.2796 16.9411L6.66632 17.6335L8.05402 16.9411L8.1214 16.9118C8.28119 16.8542 8.45879 16.8642 8.61261 16.9411L9.99933 17.6335L11.387 16.9411L11.4544 16.9118C11.6143 16.8541 11.7927 16.8641 11.9466 16.9411L13.3333 17.6344L14.72 16.9411L14.7874 16.9118C14.9474 16.8539 15.1256 16.8641 15.2796 16.9411L16.0413 17.321V2.6774L15.2796 3.05923C15.1036 3.14721 14.896 3.14721 14.72 3.05923L13.3333 2.3649L11.9466 3.05923Z" fill="currentColor"></path>
    <path d="M12.7087 11.6667C12.7087 11.3904 12.5984 11.1257 12.403 10.9304C12.2076 10.735 11.9429 10.6247 11.6667 10.6247H8.33366C7.72588 10.6247 7.14234 10.3836 6.71257 9.9538C6.28298 9.52412 6.04176 8.94128 6.04167 8.33368C6.04167 7.7259 6.2828 7.14236 6.71257 6.71259C7.14234 6.28282 7.72588 6.04169 8.33366 6.04169H13.3337C13.6787 6.04187 13.9587 6.32162 13.9587 6.66669C13.9587 7.01176 13.6787 7.29152 13.3337 7.29169H8.33366C8.0574 7.29169 7.79171 7.40103 7.59636 7.59638C7.40101 7.79173 7.29167 8.05742 7.29167 8.33368C7.29176 8.60976 7.40119 8.87475 7.59636 9.07001C7.79171 9.26536 8.0574 9.3747 8.33366 9.3747H11.6667C12.2745 9.3747 12.857 9.61681 13.2868 10.0466C13.7166 10.4763 13.9587 11.0589 13.9587 11.6667C13.9587 12.2745 13.7166 12.857 13.2868 13.2868C12.857 13.7166 12.2745 13.9587 11.6667 13.9587H6.66667C6.3216 13.9587 6.04185 13.6787 6.04167 13.3337C6.04167 12.9885 6.32149 12.7087 6.66667 12.7087H11.6667C11.9429 12.7087 12.2076 12.5984 12.403 12.403C12.5984 12.2077 12.7087 11.943 12.7087 11.6667Z" fill="currentColor"></path>
    <path d="M9.37499 14.5837V5.41669C9.37499 5.07151 9.65481 4.79169 9.99999 4.79169C10.3452 4.79169 10.625 5.07151 10.625 5.41669V14.5837C10.6248 14.9287 10.3451 15.2087 9.99999 15.2087C9.65492 15.2087 9.37517 14.9287 9.37499 14.5837Z" fill="currentColor"></path>
  </symbol>
  <symbol fill="currentColor" xmlns="http://www.w3.org/2000/svg" viewBox="0 0 20 20" id="Subscriptions">
    <path d="M13.7243 1.22426C13.9684 0.980179 14.365 0.980179 14.6091 1.22426L17.9421 4.55824C18.186 4.80233 18.1861 5.19801 17.9421 5.44203L14.6091 8.77504C14.365 9.01912 13.9684 9.01912 13.7243 8.77504C13.4806 8.53099 13.4805 8.13523 13.7243 7.89125L16.6159 4.99965L13.7243 2.10902C13.4802 1.86494 13.4802 1.46833 13.7243 1.22426Z" fill="currentColor"></path>
    <path d="M1.87501 9.16697V8.33298C1.8751 7.28328 2.29194 6.27641 3.03419 5.53415C3.77645 4.7919 4.78332 4.37506 5.83302 4.37497H17.5C17.8452 4.37497 18.125 4.65479 18.125 4.99997C18.125 5.34515 17.8452 5.62497 17.5 5.62497H5.83302C5.11484 5.62506 4.42582 5.91011 3.91798 6.41794C3.41015 6.92578 3.1251 7.6148 3.12501 8.33298V9.16697C3.12484 9.51199 2.84508 9.79197 2.50001 9.79197C2.15494 9.79197 1.87519 9.51199 1.87501 9.16697Z" fill="currentColor"></path>
    <path d="M5.39162 11.2243C5.63567 10.9806 6.03142 10.9804 6.2754 11.2243C6.51948 11.4683 6.51948 11.8649 6.2754 12.109L3.3838 14.9996L6.2754 17.8912C6.51943 18.1353 6.51932 18.5309 6.2754 18.775C6.03133 19.0191 5.63569 19.0191 5.39162 18.775L2.05763 15.442C1.81382 15.198 1.81393 14.8023 2.05763 14.5582L5.39162 11.2243Z" fill="currentColor"></path>
    <path d="M16.875 11.6663V10.8333C16.875 10.4881 17.1548 10.2083 17.5 10.2083C17.8452 10.2083 18.125 10.4881 18.125 10.8333V11.6663C18.125 12.716 17.708 13.7228 16.9658 14.4651C16.2236 15.2074 15.2167 15.6252 14.167 15.6253H2.50001C2.15494 15.6253 1.87519 15.3453 1.87501 15.0003C1.87501 14.6551 2.15484 14.3753 2.50001 14.3753H14.167C14.8852 14.3752 15.5742 14.0892 16.082 13.5814C16.5898 13.0735 16.875 12.3845 16.875 11.6663Z" fill="currentColor"></path>
  </symbol>
  <symbol fill="currentColor" xmlns="http://www.w3.org/2000/svg" viewBox="0 0 20 20" id="Transport">
    <path d="M6.04169 10V5C6.04169 4.65482 6.32151 4.375 6.66669 4.375C7.01186 4.375 7.29169 4.65482 7.29169 5V10C7.29169 10.3452 7.01186 10.625 6.66669 10.625C6.32151 10.625 6.04169 10.3452 6.04169 10Z" fill="currentColor"></path>
    <path d="M11.875 10V5C11.875 4.65482 12.1548 4.375 12.5 4.375C12.8452 4.375 13.125 4.65482 13.125 5V10C13.125 10.3452 12.8452 10.625 12.5 10.625C12.1548 10.625 11.875 10.3452 11.875 10Z" fill="currentColor"></path>
    <path d="M17.9997 9.375C18.3449 9.375 18.6247 9.65482 18.6247 10C18.6247 10.3452 18.3449 10.625 17.9997 10.625H1.66669C1.32151 10.625 1.04169 10.3452 1.04169 10C1.04169 9.65482 1.32151 9.375 1.66669 9.375H17.9997Z" fill="currentColor"></path>
    <path d="M1.04169 6.66699C1.04169 6.0592 1.28281 5.47567 1.71259 5.0459C2.14236 4.61613 2.72589 4.375 3.33368 4.375H14.9997C16.2059 4.375 17.2729 5.23592 17.5983 6.32031L17.6022 6.33105L18.7682 10.498C18.7698 10.5035 18.7717 10.5091 18.7731 10.5146C18.8528 10.8333 18.9587 11.2433 18.9587 11.667C18.9586 12.0906 18.8528 12.4998 18.7731 12.8184L18.7702 12.8311C18.6439 13.2941 18.4761 13.8813 18.3405 14.3506C18.2726 14.5857 18.2117 14.7919 18.1686 14.9395C18.1471 15.0132 18.1298 15.0726 18.1179 15.1133C18.1119 15.1335 18.1073 15.1495 18.1042 15.1602C18.1027 15.1652 18.1021 15.1692 18.1013 15.1719C18.1009 15.1729 18.1005 15.1741 18.1003 15.1748L18.0993 15.1758C18.0211 15.4418 17.777 15.625 17.4997 15.625H14.9997C14.6547 15.6248 14.3747 15.3451 14.3747 15C14.3747 14.6549 14.6547 14.3752 14.9997 14.375H17.0319C17.064 14.2647 17.1003 14.1391 17.1393 14.0039C17.2734 13.54 17.4369 12.9664 17.5602 12.5146C17.6472 12.167 17.7086 11.9098 17.7087 11.667C17.7087 11.4241 17.6472 11.1663 17.5602 10.8184L16.4011 6.67969L16.364 6.57227C16.152 6.04043 15.5878 5.625 14.9997 5.625H3.33368C3.05741 5.625 2.79172 5.73434 2.59637 5.92969C2.40102 6.12504 2.29169 6.39072 2.29169 6.66699V14.375H4.16669C4.51186 14.375 4.79169 14.6548 4.79169 15C4.79169 15.3452 4.51186 15.625 4.16669 15.625H1.66669C1.32151 15.625 1.04169 15.3452 1.04169 15V6.66699Z" fill="currentColor"></path>
    <path d="M6.87469 15.0003C6.87469 14.4251 6.40883 13.9585 5.83368 13.9583C5.25838 13.9583 4.79169 14.4247 4.79169 15C4.79186 15.5751 5.25849 16.0413 5.83368 16.0413C6.40872 16.0412 6.87452 15.5754 6.87469 15.0003ZM8.12469 15.0003C8.12452 16.2657 7.09907 17.2912 5.83368 17.2913C4.56814 17.2913 3.54186 16.2658 3.54169 15.0003C3.54169 13.7347 4.56803 12.7083 5.83368 12.7083C7.09918 12.7085 8.12469 13.7348 8.12469 15.0003Z" fill="currentColor"></path>
    <path d="M11.667 14.375C12.012 14.3752 12.292 14.6549 12.292 15C12.292 15.3451 12.012 15.6248 11.667 15.625H7.50001C7.15483 15.625 6.87469 15.3455 6.87469 15.0003C6.87469 14.6551 7.15483 14.375 7.50001 14.375H11.667Z" fill="currentColor"></path>
    <path d="M14.3747 15C14.3747 14.4248 13.9088 13.9585 13.3337 13.9583C12.7584 13.9583 12.292 14.4247 12.292 15C12.2922 15.5751 12.7585 16.0413 13.3337 16.0413C13.9087 16.0412 14.3745 15.575 14.3747 15ZM15.6247 15.0003C15.6245 16.2657 14.5991 17.2912 13.3337 17.2913C12.0681 17.2913 11.0419 16.2658 11.0417 15.0003C11.0417 13.7347 12.068 12.7083 13.3337 12.7083C14.5992 12.7085 15.6247 13.7348 15.6247 15.0003Z" fill="currentColor"></path>
  </symbol>
  <symbol fill="currentColor" xmlns="http://www.w3.org/2000/svg" viewBox="0 0 20 20" id="UploadingReceipts">
    <path d="M9.37499 17.5003V10.8333C9.37499 10.4881 9.65481 10.2083 9.99999 10.2083C10.3452 10.2083 10.625 10.4881 10.625 10.8333V17.5003C10.6248 17.8453 10.3451 18.1253 9.99999 18.1253C9.65492 18.1253 9.37516 17.8453 9.37499 17.5003Z" fill="currentColor"></path>
    <path d="M6.99108 1.89771C7.96787 1.82024 8.95008 1.96544 9.86217 2.32349C10.7743 2.6816 11.5935 3.24275 12.2567 3.96411C12.8132 4.56939 13.2458 5.2754 13.537 6.04126H14.5829C15.5215 6.04115 16.4354 6.34356 17.1893 6.90259C17.9433 7.46173 18.4979 8.24846 18.7704 9.14673C19.0428 10.045 19.0193 11.0071 18.703 11.8909C18.3867 12.7747 17.7941 13.5335 17.0135 14.0549C16.7266 14.2464 16.339 14.1689 16.1473 13.8821C15.9556 13.5951 16.0322 13.2066 16.3192 13.0149C16.8767 12.6425 17.3003 12.1012 17.5262 11.47C17.7521 10.8388 17.7686 10.1515 17.5741 9.51001C17.3795 8.86838 16.9837 8.30588 16.4452 7.9065C15.9067 7.50721 15.2542 7.29128 14.5839 7.29126H13.0917C12.8154 7.29126 12.5721 7.10973 12.493 6.84497C12.267 6.08801 11.8714 5.39241 11.3368 4.81079C10.8019 4.229 10.1408 3.77637 9.40514 3.48755C8.66969 3.19886 7.87831 3.08138 7.09069 3.1438C6.30287 3.20628 5.53918 3.44675 4.85827 3.8479C4.17735 4.24907 3.59651 4.8004 3.16003 5.45923C2.72367 6.11797 2.44264 6.86734 2.33874 7.65064C2.23483 8.43403 2.3108 9.23092 2.56042 9.98071C2.81007 10.7305 3.22735 11.414 3.78014 11.9788C4.02144 12.2255 4.01701 12.6212 3.77038 12.8626C3.52369 13.1039 3.128 13.0994 2.88659 12.8528C2.20119 12.1525 1.68442 11.305 1.37487 10.3752C1.0654 9.44562 0.970692 8.45786 1.09948 7.48657C1.22831 6.5152 1.57688 5.58569 2.11803 4.7688C2.65926 3.95188 3.37921 3.26819 4.2235 2.77075C5.06769 2.27339 6.01435 1.97525 6.99108 1.89771Z" fill="currentColor"></path>
    <path d="M9.65591 10.3108C9.89844 10.1508 10.2285 10.1775 10.442 10.3909L13.7751 13.7249C14.0191 13.969 14.0191 14.3646 13.7751 14.6087C13.531 14.8526 13.1353 14.8527 12.8913 14.6087L9.99966 11.7171L7.10904 14.6087C6.86496 14.8528 6.46835 14.8528 6.22427 14.6087C5.98047 14.3647 5.98058 13.969 6.22427 13.7249L9.55826 10.3909L9.65591 10.3108Z" fill="currentColor"></path>
  </symbol>
  <symbol fill="currentColor" xmlns="http://www.w3.org/2000/svg" viewBox="0 0 20 20" id="Utilities">
    <path d="M18.75 9.37499C18.6197 9.37415 18.493 9.33264 18.3875 9.25624L10 3.26874L1.6125 9.25624C1.47794 9.33594 1.31839 9.36229 1.16535 9.3301C1.01231 9.2979 0.876897 9.2095 0.785849 9.08235C0.6948 8.9552 0.654731 8.79853 0.67355 8.64327C0.692369 8.48802 0.768709 8.34546 0.8875 8.24374L9.6375 1.99374C9.74335 1.91838 9.87006 1.87788 10 1.87788C10.1299 1.87788 10.2566 1.91838 10.3625 1.99374L19.1125 8.24374C19.2192 8.32099 19.2988 8.42999 19.3398 8.55516C19.3809 8.68033 19.3814 8.81528 19.3412 8.94073C19.301 9.06618 19.2222 9.17573 19.116 9.25372C19.0098 9.3317 18.8817 9.37415 18.75 9.37499Z" fill="currentColor"></path>
    <path d="M3.125 5.625C2.95924 5.625 2.80027 5.55915 2.68306 5.44194C2.56585 5.32473 2.5 5.16576 2.5 5V2.5C2.5 2.33424 2.56585 2.17527 2.68306 2.05806C2.80027 1.94085 2.95924 1.875 3.125 1.875H5.625C5.79076 1.875 5.94974 1.94085 6.06695 2.05806C6.18416 2.17527 6.25 2.33424 6.25 2.5C6.25 2.66576 6.18416 2.82473 6.06695 2.94194C5.94974 3.05915 5.79076 3.125 5.625 3.125H3.75V5C3.75 5.16576 3.68416 5.32473 3.56695 5.44194C3.44974 5.55915 3.29076 5.625 3.125 5.625Z" fill="currentColor"></path>
    <path d="M15.625 18.125H12.5C12.3342 18.125 12.1753 18.0592 12.0581 17.9419C11.9409 17.8247 11.875 17.6658 11.875 17.5V13.125H8.125V17.5C8.125 17.6658 8.05916 17.8247 7.94195 17.9419C7.82474 18.0592 7.66576 18.125 7.5 18.125H4.375C3.87772 18.125 3.40081 17.9275 3.04918 17.5758C2.69755 17.2242 2.5 16.7473 2.5 16.25V10C2.5 9.83424 2.56585 9.67527 2.68306 9.55806C2.80027 9.44085 2.95924 9.375 3.125 9.375C3.29076 9.375 3.44974 9.44085 3.56695 9.55806C3.68416 9.67527 3.75 9.83424 3.75 10V16.25C3.75 16.4158 3.81585 16.5747 3.93306 16.6919C4.05027 16.8092 4.20924 16.875 4.375 16.875H6.875V12.5C6.875 12.3342 6.94085 12.1753 7.05806 12.0581C7.17527 11.9408 7.33424 11.875 7.5 11.875H12.5C12.6658 11.875 12.8247 11.9408 12.9419 12.0581C13.0592 12.1753 13.125 12.3342 13.125 12.5V16.875H15.625C15.7908 16.875 15.9497 16.8092 16.0669 16.6919C16.1842 16.5747 16.25 16.4158 16.25 16.25V10C16.25 9.83424 16.3159 9.67527 16.4331 9.55806C16.5503 9.44085 16.7092 9.375 16.875 9.375C17.0408 9.375 17.1997 9.44085 17.3169 9.55806C17.4342 9.67527 17.5 9.83424 17.5 10V16.25C17.5 16.7473 17.3025 17.2242 16.9508 17.5758C16.5992 17.9275 16.1223 18.125 15.625 18.125Z" fill="currentColor"></path>
  </symbol>
  <symbol fill="currentColor" xmlns="http://www.w3.org/2000/svg" viewBox="0 0 20 20" id="Video">
    <path d="M12.71 9.99966C12.7099 9.96369 12.7004 9.92839 12.6826 9.89712C12.6648 9.86578 12.6394 9.8394 12.6084 9.82095L12.6065 9.81997L8.44239 7.3229L8.44141 7.32192C8.40977 7.30281 8.37291 7.29217 8.33595 7.29165C8.29909 7.29119 8.26255 7.30083 8.23048 7.31899C8.19849 7.33717 8.17184 7.36337 8.15333 7.39516C8.13476 7.42713 8.1249 7.46366 8.12501 7.50063V12.4997C8.12494 12.5364 8.13492 12.5723 8.15333 12.6041C8.17187 12.6361 8.19833 12.6631 8.23048 12.6813C8.26257 12.6995 8.29905 12.7091 8.33595 12.7086C8.37293 12.7081 8.40975 12.6975 8.44141 12.6784L8.44239 12.6774L12.6065 10.1803L12.6084 10.1793C12.6393 10.1609 12.6648 10.1344 12.6826 10.1032C12.7004 10.0718 12.71 10.0357 12.71 9.99966ZM13.96 9.99966C13.96 10.2522 13.8943 10.5008 13.7695 10.7204C13.6451 10.9394 13.4653 11.1214 13.249 11.2506L13.25 11.2516L9.08595 13.7497L9.08497 13.7487C8.86379 13.8818 8.61168 13.9551 8.35352 13.9586C8.09462 13.9622 7.83952 13.8959 7.61427 13.7682C7.38924 13.6406 7.20214 13.4558 7.07227 13.2321C6.94238 13.0081 6.87397 12.7527 6.87501 12.4938V7.50259C6.87455 7.2444 6.94257 6.9905 7.07227 6.76723C7.20227 6.5435 7.39008 6.3586 7.61524 6.2311C7.84028 6.10374 8.09497 6.03807 8.35352 6.04165C8.61163 6.04528 8.86385 6.11848 9.08497 6.25161L13.25 8.7477C13.4666 8.87698 13.6449 9.06057 13.7695 9.27993C13.8942 9.49938 13.9599 9.74728 13.96 9.99966Z" fill="currentColor"></path>
    <path d="M17.7087 9.99969C17.7085 5.74265 14.2568 2.29169 9.99969 2.29169C5.74276 2.29186 2.29186 5.74276 2.29169 9.99969C2.29169 14.2568 5.74265 17.7085 9.99969 17.7087C14.2569 17.7087 17.7087 14.2569 17.7087 9.99969ZM18.9587 9.99969C18.9587 14.9472 14.9472 18.9587 9.99969 18.9587C5.05229 18.9585 1.04169 14.9471 1.04169 9.99969C1.04186 5.0524 5.0524 1.04186 9.99969 1.04169C14.9471 1.04169 18.9585 5.05229 18.9587 9.99969Z" fill="currentColor"></path>
  </symbol>
</svg>
